<?xml version="1.0" encoding="utf-8" ?>
<svg xmlns="http://www.w3.org/2000/svg" xmlns:xlink="http://www.w3.org/1999/xlink" width="1024" height="1024">
	<path fill="#31073F" d="M347.369 258.635C352.102 258.139 356.94 258.366 361.696 258.434C363.835 258.464 366.47 258.189 368.52 258.68C372.7 259.679 374.338 263.106 376.43 266.485L424.409 266.406L427.035 262.75C429.043 260.401 431.322 259.161 434.397 258.877C438.859 258.464 443.557 258.641 448.043 258.587C450.54 258.557 453.565 258.203 455.979 258.717C457.498 259.041 459.122 259.965 460.248 261.027C462.342 263.002 463.856 265.901 464.488 268.683C465.571 273.454 464.826 279.273 464.792 284.161L464.744 311.108L464.819 315.915C464.824 316.175 464.844 317.033 464.844 317.034C465.563 317.475 479.358 317.036 481.137 317.037L541.75 317.033C551.379 317.029 561.698 316.278 571.262 317.13C572.658 317.254 573.917 317.488 575.156 318.173C580.329 321.029 584.941 326.874 589.157 331.04L611.451 353.029L767.739 352.985L793.237 352.883C797.405 352.891 804.223 353.729 808.167 352.456C811.485 351.386 815.348 347.083 817.996 344.848L844.877 322.35C848.54 319.34 853.075 314.745 857.407 312.925C859.107 312.21 861.712 312.386 863.53 312.352L883.801 312.249C886.616 312.285 890.385 311.992 893.089 312.724C894.492 313.103 896.116 314.38 897.1 315.412C897.967 316.322 898.778 317.587 898.955 318.849C899.868 325.389 899.304 332.815 899.247 339.448L898.728 378.395L900.684 378.285C903.57 378.172 909.274 377.704 911.89 378.964C912.719 379.363 913.897 380.593 914.563 381.25C918.239 384.879 916.987 394.089 916.873 398.92C920.531 400.058 924.316 401.383 927.404 403.712C932.14 407.283 933.835 412.127 934.634 417.832C934.789 418.936 937.694 418.48 938.866 418.483L957.261 418.474C960.881 418.403 965.33 417.772 968.862 418.583C970.808 419.029 972.659 420.084 974.137 421.409C976.071 423.145 977.397 425.423 977.503 428.05L977.516 460.656C977.501 466.403 978.254 473.529 977.157 479.08C976.715 481.317 975.305 483.071 973.75 484.674C972.754 485.701 970.827 487.824 969.513 488.338C967.734 489.034 963.331 488.479 961.203 488.483L933.919 488.494C933.835 495.441 934.272 502.474 930.904 508.761C928.815 512.662 925.479 516.001 921.095 517.111C917.67 517.978 911.015 518.064 908.004 516.01C903.636 513.03 904.089 509.512 903.25 504.877L902 504.524L901.164 505.131C900.452 510.086 900.699 515.248 900.673 520.253L900.577 544.511C904.557 547.338 907.542 550.727 909.564 555.165C909.462 559.612 909.063 564.503 906.39 568.257C905.01 570.194 902.753 571.935 901 573.546L891.592 582.211L873.062 599.365C869.707 602.48 866.491 605.811 862.903 608.657C860.901 610.244 858.447 612.29 855.866 612.684C849.64 613.634 842.08 612.885 835.751 612.866L789.903 612.644L727.364 612.615C717.127 612.615 706.425 613.286 696.25 612.498C694.292 612.346 692.418 611.654 690.84 610.485C685.609 606.612 683.982 600.609 682.998 594.523L670.014 594.535C667.476 594.536 664.532 594.791 662.074 594.185C656.873 592.903 655.075 589.554 652.524 585.253L629.368 585.009C628.29 584.995 624.558 584.598 623.854 584.935C623.282 585.21 599.696 639.677 573.056 701.602C569.116 710.761 565.798 721.021 560.982 729.717C559.527 732.343 557.847 734.297 555.122 735.635C548.944 738.669 541.171 740.186 534.535 742.152L487.878 755.68L468.27 761.43C462.735 763.16 457.146 765.238 451.427 766.236C446.557 767.086 442.488 767.225 437.75 765.473C431.231 763.064 426.4 758.093 423.649 751.787C422.104 748.244 421.302 744.162 421.784 740.299C423.129 729.514 428.847 718.96 432.967 709L447.273 673.626L482.893 584.959C476.997 584.118 470.42 584.574 464.436 584.646C462.626 584.668 456.524 584.344 455.125 585.045C454.231 585.493 452.674 587.487 451.931 588.297C447.8 592.797 444.251 597.881 440.58 602.757L417.643 632.523C413.769 637.5 410.338 642.835 405.88 647.334C401.823 651.428 396.397 654.283 390.765 655.449C387.008 656.226 382.966 655.951 379.139 655.938L360.044 655.871L291.659 656.019C288.636 658.375 285.9 661.985 283.454 664.97C277.131 672.685 271.35 680.966 265.724 689.199C263.44 692.542 259.251 697.55 258.431 701.5L260.542 703.5C260.475 707.718 259.784 711.778 259.503 715.976C258.941 724.385 259.326 734.642 256.377 742.56C254.711 747.031 252.911 751.386 249.37 754.75C246.983 757.018 243.684 759.067 240.52 760.041C235.148 761.695 228.691 761.053 223.12 761.11L206.896 761.334C201.459 761.14 195.551 760.683 190.75 757.929C186.351 755.406 182.684 750.947 179.099 747.36L160.498 728.633L130.388 698.275C124.865 692.369 122.575 686.299 123.003 678.25C123.146 675.562 123.734 672.599 125.096 670.25C127.521 666.067 131.525 662.527 134.863 659.058L148.54 644.95C153.653 640.015 157.761 639.126 164.556 638.722C165.411 638.671 167.387 638.811 168.118 638.529C168.877 638.236 171.301 634.701 172.129 633.787L184.814 620.907L226.349 578.849C234.801 570.253 242.911 561.436 251.946 553.425L246.052 531.367C244.122 524.209 242.647 515.534 237.772 509.695C236.284 507.913 234.018 505.623 231.656 505.444C226.209 505.032 220.398 505.505 214.924 505.595C207.38 505.718 197.149 504.73 190.094 507.386C186.539 508.723 183.217 511.744 180.386 514.184C172.605 520.891 165.455 528.541 158.011 535.641L112.048 579.275L81.1291 608.188C76.0133 612.581 71.5662 614.101 64.834 613.409C60.2934 612.942 55.6565 609.969 52.8072 606.493C50.4708 603.643 49.0065 600.369 48.6007 596.691C47.7001 588.528 48.511 579.407 48.5451 571.165L48.7743 516.923L48.9073 455.638C48.9285 445.825 48.0665 435.07 49.3308 425.369L49.4544 424.5C50.5662 416.313 54.4009 408.667 60.25 402.827C65.7122 397.374 73.1775 393.982 80.7192 392.628C87.6029 391.393 95.1154 391.917 102.09 391.904L138.104 391.866L263.988 392.027C266.574 389.475 268.574 386.348 270.765 383.458L283.463 367.199L290.052 359.839C290.584 359.26 292.225 357.838 292.493 357.197C292.816 356.423 292.752 354.304 292.859 353.374C293.275 349.782 294.472 347.002 296.312 343.948C303.188 332.54 314.321 321.69 327.473 318.328C331.12 317.396 334.764 317.492 338.507 317.463L338.507 285.482C338.513 279.752 337.584 271.959 339.351 266.52C340.612 262.637 343.875 260.355 347.369 258.635ZM412.936 567.098L359.149 579.67L365.157 600.473C366.298 603.994 368.24 607.59 368.829 611.236C369.093 612.874 368.89 614.447 368.057 615.899C366.275 619.002 362.937 620.933 359.548 621.693C356.424 622.393 354.479 621.881 351.757 620.086C344.462 615.275 342.419 603.351 340.066 595.489L335.204 579.769L323.063 594.349C317.868 601.55 312.395 609.275 309.103 617.578L314.626 624.907L367.594 625.004L376.014 625.021C376.583 625.022 378.481 625.227 378.958 625.024C379.702 624.708 381.114 623.187 381.75 622.539C385.584 618.629 419.902 574.745 420.236 573.573L414.75 566.865L412.936 567.098Z"/>
	<path fill="#FFFDFC" d="M705.574 537.679L706.045 535L707 534.392C708.68 534.354 710.022 533.933 711.363 535L711.442 537.05C709.471 537.422 707.577 537.594 705.574 537.679Z"/>
	<path fill="#DF5C49" d="M846.007 593.192L850.006 591.935L849.979 598L849.25 598.673L846.575 598.25C845.731 596.719 846.014 594.928 846.007 593.192Z"/>
	<path fill="#F49C3B" d="M779.337 374.121L773.042 368.017L789.669 368.108L789.215 368.179C787.337 368.452 781.927 367.991 780.942 369.25L780.947 374.055L779.337 374.121Z"/>
	<path fill="#F9823F" d="M90.4376 494.838C92.9228 497.978 91.9322 508.699 91.9369 512.909C91.9393 515.071 92.1874 517.621 91.9026 519.742C91.8228 520.336 91.7362 520.489 91.5412 520.982L90.5994 520.618C89.7313 518.765 90.2038 515.694 90.2163 513.624L90.4376 494.838Z"/>
	<path fill="#BE3E40" d="M705.831 590.942L711.038 591.093C711.046 593.294 711.534 596.833 710.457 598.75L709.5 598.983C707.99 599.157 706.843 598.786 705.853 597.75C705.691 595.437 705.585 593.261 705.831 590.942Z"/>
	<path fill="#BE3E40" d="M694.01 591.978L701.006 592.024L701.043 598.997L693.998 599.013L694.01 591.978Z"/>
	<path fill="#4C355E" d="M661.058 376.299L666.871 381.759C662.678 380.854 658.303 380.767 654.033 381.087C652.621 379.7 651.441 378.12 650.302 376.506L651.012 376.427L661.058 376.299Z"/>
	<path fill="#927CA2" d="M733.301 375.089L734.758 376.762C731.766 378.709 715.413 377.539 711.25 377.432L708.914 375.733C711.029 374.617 714.376 375.038 716.778 375.039L733.301 375.089Z"/>
	<path fill="#927CA2" d="M731.168 395.189L725.301 395.312L717.547 385.014L724.299 385.461C726.282 388.992 728.551 392.102 731.168 395.189Z"/>
	<path fill="#DF5C49" d="M780.947 374.055L782.255 374.076C783.401 374.197 785.185 374.162 786.25 374.498C787.354 374.847 792.423 380.95 793.352 382.089C793.931 382.799 794.362 383.479 794.729 384.325C793.17 384.237 789.471 384.513 788.188 383.956C786.778 383.342 780.847 375.799 779.337 374.121L780.947 374.055Z"/>
	<path fill="#4C355E" d="M850.484 511.007C852.81 511.035 855.794 510.439 857.528 512.01C857.53 515.268 857.832 518.687 856.75 521.794C850.552 522.652 842.633 522.318 836.347 521.93C840.917 521.147 845.876 521.54 850.508 521.571L850.484 511.007Z"/>
	<path fill="#D6BED8" d="M917.045 438.381L916.983 413.25L917.75 412.604C918.266 412.885 918.948 413.197 919.379 413.62C919.678 413.913 920.349 414.905 920.448 415.25C920.739 416.266 920.449 418.46 920.448 419.577L920.343 433.769L919.85 439.982L919.109 440.25L917.045 438.381Z"/>
	<path fill="#FDDB62" d="M845.963 560.016C845.954 556.089 844.867 535.284 846.557 533.25C847.928 533.051 848.429 532.723 849.616 533.5L849.728 560.074L845.963 560.016Z"/>
	<path fill="#6A4F7E" d="M364.999 297.971L365.029 304.503L348.5 304.495L348.503 297.99L364.999 297.971Z"/>
	<path fill="#6A4F7E" d="M435.419 292.022L435.696 297.921L451.693 297.894L451.931 304.499L434.979 304.498C435.011 300.381 434.805 296.098 435.419 292.022Z"/>
	<path fill="#3E1F4B" d="M352.373 565.215L380.097 565.027C377.268 566.126 374.335 566.735 371.388 567.426L355.513 569.662C352.475 569.899 347.073 570.799 344.75 568.802C344.543 567.562 344.435 567.371 344.957 566.25C347.292 565.429 349.919 565.42 352.373 565.215Z"/>
	<path fill="#FDDB62" d="M711.442 537.05L711.322 552.106L711.154 552.529C710.728 553.952 711.341 559.096 710.366 559.582C709.053 560.236 707.283 560.03 705.843 560.029L705.574 537.679C707.577 537.594 709.471 537.422 711.442 537.05Z"/>
	<path fill="#4C355E" d="M348.501 309.496L365.438 309.87L365.259 316.25C365.001 316.482 364.812 316.831 364.485 316.946C363.617 317.252 361.51 316.957 360.455 316.961L348.506 317.006L348.501 309.496Z"/>
	<path fill="#4C355E" d="M434.549 309.505L451.968 309.506L451.967 316.985L434.53 317.015L434.549 309.505Z"/>
	<path fill="#F49C3B" d="M849.728 560.074L850.006 591.935L846.007 593.192L845.963 560.016L849.728 560.074Z"/>
	<path fill="#FDDB62" d="M709.431 387.369C713.117 391.704 728.635 408.99 728.728 413.619L728.538 414.019C724.378 412.151 721.212 408.384 718.25 405.04L706.27 390.504C708.284 389.588 708.579 389.315 709.431 387.369Z"/>
	<path fill="#FFFEB1" d="M164.081 666.879L154.769 656.982L161.648 650.516C163.062 650.569 168.826 657.372 170.212 658.805C168.349 662.042 167.13 664.538 164.081 666.879Z"/>
	<path fill="#7F618C" d="M435.419 292.022L435.562 290C437.325 288.695 447.069 288.778 449.486 289.198C450.139 289.312 450.708 289.516 451.326 289.75C451.711 292.445 451.658 295.176 451.693 297.894L435.696 297.921L435.419 292.022Z"/>
	<path fill="#7F618C" d="M348.503 297.99L348.496 289.504L365.029 289.509L364.999 297.971L348.503 297.99Z"/>
	<path fill="#4C355E" d="M921.458 456.441L922.213 487.457C922.278 491.688 922.813 496.716 921.794 500.838C921.437 502.285 920.804 503.468 919.741 504.512C919.168 505.074 918.873 505.226 918.115 505.555C917.538 502.213 917.869 498.54 917.89 495.145C917.922 489.883 917.773 484.491 918.151 479.247C918.694 471.727 920.472 463.965 921.458 456.441Z"/>
	<path fill="#3E1F4B" d="M344.559 578.75C345.997 578.222 347.254 578.338 348.75 578.411C349.173 578.712 349.296 578.753 349.625 579.25C350.265 580.216 350.582 582.058 350.91 583.188L353.851 593.533C355.058 597.56 356.873 601.516 357.787 605.613C358.05 606.791 358.021 607.578 357.805 608.75C356.905 608.914 355.916 608.869 355 608.902C354.663 608.639 354.508 608.553 354.25 608.147C352.871 605.978 352.01 602.467 351.114 600.04L346.545 587.353C345.561 584.533 344.299 581.785 344.559 578.75Z"/>
	<path fill="#F9823F" d="M869.821 325.048L884.966 325.011C885.262 327.599 885.546 330.108 885.458 332.72L884.75 335.958C880.334 336.474 875.602 336.091 871.149 336.046L870.993 335.697L870.82 330.518L871.25 325.966L869.821 325.048Z"/>
	<path fill="#FFFEB1" d="M136.006 684.987C135.054 682.528 135.369 679.457 135.338 676.841C137.244 673.36 146.952 663.116 150.308 661.71L152.615 663.88C152.275 668.961 148.921 669.477 147.32 673.56C146.101 675.136 144.926 676.868 143.521 678.28C141.286 680.722 139.09 683.615 136.006 684.987Z"/>
	<path fill="#F9823F" d="M705.843 560.029C707.283 560.03 709.053 560.236 710.366 559.582C711.341 559.096 710.728 553.952 711.154 552.529L711.322 552.106L711.038 591.093L705.831 590.942L705.843 560.029Z"/>
	<path fill="#FDDB62" d="M170.212 658.805L191.124 680.365C195.076 684.435 199.477 688.446 202.961 692.92C199.862 692.014 197.051 687.818 194.717 685.5L178.246 669.251C176.464 671.09 175.59 674.467 174.066 676.676L173.775 677.087L164.081 666.879C167.13 664.538 168.349 662.042 170.212 658.805Z"/>
	<path fill="#FDDB62" d="M224.547 455.882L268.473 407.237L271.934 410.776L263.715 415.806C261.609 417.208 259.994 419.938 258.258 421.839L246.485 434.93C240.239 442.541 235.302 449.881 227.309 455.924L224.547 455.882Z"/>
	<path fill="#6A4F7E" d="M920.343 433.769C921.869 436.467 921.491 439.732 921.497 442.75L921.458 456.441C920.472 463.965 918.694 471.727 918.151 479.247C917.773 484.491 917.922 489.883 917.89 495.145C917.869 498.54 917.538 502.213 918.115 505.555L917.31 505.776C916.217 504.365 916.971 446.245 917.045 438.381L919.109 440.25L919.85 439.982L920.343 433.769Z"/>
	<path fill="#6A4F7E" d="M654.033 381.087C658.303 380.767 662.678 380.854 666.871 381.759C670.867 385.649 674.558 389.785 677.458 394.575C674.514 394.443 669.711 393.714 667.012 394.993L665.129 395.982C664.335 394.158 662.687 392.465 661.469 390.872L654.033 381.087Z"/>
	<defs>
		<linearGradient id="gradient_0" gradientUnits="userSpaceOnUse" x1="506.0477" y1="590.10547" x2="485.4523" y2="605.39453">
			<stop offset="0" stop-color="#BC815B"/>
			<stop offset="1" stop-color="#B07877"/>
		</linearGradient>
	</defs>
	<path fill="url(#gradient_0)" d="M487.196 610.957L497.397 585.297L504.703 585.352C501.327 593.706 496.769 602.337 494.404 610.992L487.196 610.957Z"/>
	<path fill="#7F618C" d="M435.342 271.801L451.993 272.016L451.963 282.986L435.447 282.999L435.342 271.801Z"/>
	<path fill="#BE3E40" d="M234.468 708.253L248.331 708.516L247.992 719.497C240.487 719.692 232.404 720.421 224.977 719.095L227.75 719C230.131 718.423 233.297 710.677 234.468 708.253Z"/>
	<path fill="#6A4F7E" d="M734.149 510.86L736.028 511.25C736.822 514.398 736.268 518.704 736.218 521.995L719.027 522.01C719.247 519.283 718.13 513.289 719.524 511.158L723.598 510.907L734.149 510.86Z"/>
	<path fill="#D6BED8" d="M724.299 385.461L743.973 385.496L750.767 394.929L731.168 395.189C728.551 392.102 726.282 388.992 724.299 385.461Z"/>
	<path fill="#6A4F7E" d="M348.477 271.305L365.064 271.346L365.015 283.001L348.425 283.001L348.477 271.305Z"/>
	<path fill="#FEF67D" d="M693.845 560.01L693.932 534.352L701.218 533.989C701.926 536.035 701.504 539.327 701.504 541.534L701.484 558.249L700.75 559.907L693.845 560.01Z"/>
	<path fill="#FEF67D" d="M152.615 663.88L170.457 682.742C168.182 683.088 165.704 683.976 163.446 684.028C160.899 684.087 158.678 683.14 156.232 682.636L147.32 673.56C148.921 669.477 152.275 668.961 152.615 663.88Z"/>
	<path fill="#7F618C" d="M708.914 375.733L703.093 367.295C710.817 365.744 717.95 366.078 725.752 366.522L733.301 375.089L716.778 375.039C714.376 375.038 711.029 374.617 708.914 375.733Z"/>
	<path fill="#FEF67D" d="M667.679 369.359L662.981 366.028L681.974 366.015C683.765 366.017 687.26 365.584 688.828 366.246C691.09 367.2 693.38 369.245 695.118 370.955L709.431 387.369C708.579 389.315 708.284 389.588 706.27 390.504L704.954 389C699.918 383.361 694.547 376.933 688.516 372.363C687.695 371.741 686.28 370.424 685.353 370.076C684.373 369.708 681.854 369.985 680.643 369.949L667.679 369.359Z"/>
	<path fill="#DF5C49" d="M693.845 560.01L700.75 559.907L701.484 558.249L701.006 592.024L694.01 591.978L693.845 560.01Z"/>
	<path fill="#BE3E40" d="M857.81 383.961L870.983 384.055L870.944 369.046L885.112 370.041L885.04 384.527L798.796 384.421C805.406 383.482 812.672 384.041 819.356 384.025L857.81 383.961Z"/>
	<path fill="#3E1F4B" d="M562.977 510.373L563.026 502.792L595.533 502.872L595.472 520.22L595.141 520.378C594.544 517.471 595.133 513.136 595.14 510.079L562.977 510.373Z"/>
	<path fill="#1B9B8E" d="M190.866 448.423L215.164 448.037L205.36 459.273L183.565 459.498C184.304 456.344 188.978 451.25 190.866 448.423Z"/>
	<path fill="#1B9B8E" d="M665.129 395.982L667.012 394.993L670.461 401.078L665.922 411.005C663.087 416.683 659.841 422.215 657.272 428.018C656.699 429.313 655.875 430.485 656.25 431.885L657.876 432.556L648.733 432.234C648.439 430.355 662.721 401.151 665.129 395.982Z"/>
	<path fill="#4C355E" d="M880.937 503.515L889.672 503.807L889.464 539.682C886.407 538.419 883.118 537.186 880.278 535.495C881.602 525.121 880.789 513.994 880.937 503.515Z"/>
	<path fill="#8D9AB0" d="M662.497 558.484L662.492 544.506L684.47 544.515L684.492 558.486L662.497 558.484Z"/>
	<path fill="#1B9B8E" d="M515.587 519.392C515.262 517.905 515.5 515.903 515.509 514.345L515.945 502.494L556.405 502.502L556.475 510.019L515.994 509.964L515.708 519.317L515.587 519.392Z"/>
	<path fill="#1B9B8E" d="M173.341 465.419C177.295 464.898 181.337 465.281 185.33 465.277C191.489 465.27 197.724 465.045 203.865 465.515C200.902 470.244 197.684 474.543 193.743 478.506C186.485 478.572 178.904 479.067 171.699 478.049L180.701 465.594L173.341 465.419Z"/>
	<path fill="#3E1F4B" d="M749 510.44L748.982 503.021L793.409 503.017L793.452 510.444L749 510.44Z"/>
	<path fill="#7F618C" d="M604.497 400.536L655.322 400.028L651.181 406.995L604.503 407.185L604.497 400.536Z"/>
	<path fill="#DF5C49" d="M838.23 404.499L876.345 404.487L871.817 411.247L867.836 416.248L847.749 416.502L838.23 404.499Z"/>
	<path fill="#FFFDFC" d="M716.894 535.988L717.75 534.674C728.237 533.372 738.91 534.134 749.45 534.187L798.366 534.181L827.995 534.18C831.601 534.185 835.978 533.683 839.5 534.226C840.192 534.332 840.612 534.594 841.21 534.934L840.73 536.337C836.83 537.342 832.425 536.958 828.407 536.961L807.696 536.986L717.162 537.138L716.894 535.988Z"/>
	<path fill="#7F618C" d="M448.821 401.358C459.2 399.065 470.736 399.998 481.336 400.007C487.632 400.012 494.554 399.481 500.75 400.472C501.601 401.377 501.336 400.892 501.667 401.856L501.503 406.25C501.252 406.498 501.086 406.887 500.75 406.994C500.071 407.209 498.287 406.994 497.513 406.995L489.594 406.996L449.75 407.004C448.463 405.711 448.887 403.178 448.821 401.358Z"/>
	<path fill="#FEF67D" d="M738.589 368.816L737.78 368.264C736.717 367.524 735.861 366.65 734.975 365.714L760.333 365.681L789.195 397.989C792.417 401.791 798.632 407.369 799.45 412.25L798.514 413.506C795.576 412.102 793.23 408.781 791.055 406.357L773.972 387.016L761.577 375.381C760.174 374.107 756.909 370.599 755.162 370.03C753.909 369.622 750.609 370.044 749.136 370.029C745.736 369.995 742.478 369.694 739.159 368.949L738.589 368.816Z"/>
	<path fill="#7F618C" d="M527.385 402.961C528.109 402.265 529.373 400.703 530.203 400.25C532.043 399.246 574.159 400.002 580.045 400.004L579.981 407.002C562.822 407.069 545.046 408.313 528.006 406.371C527.272 405.133 527.398 404.352 527.385 402.961Z"/>
	<path fill="#3E1F4B" d="M805.074 510.455L805.295 509.917C805.923 507.744 804.568 504.832 805.415 502.927L856.803 503.011L857.528 512.01C855.794 510.439 852.81 511.035 850.484 511.007L805.84 510.609L805.074 510.455Z"/>
	<path fill="#1B9B8E" d="M515.581 522.785L516.002 533.041L556.482 532.995L556.403 543.014L515.558 543.01L515.581 522.785Z"/>
	<path fill="#BE3E40" d="M891.984 554.762C893.769 555.954 896.132 557.158 897.525 558.77C893.128 564.127 887.917 568.325 882.828 572.965L854.007 599.599C854.015 596.048 853.231 590.132 854.38 586.894C856.79 586.457 861.553 581.194 863.634 579.408L891.984 554.762Z"/>
	<path fill="#F9823F" d="M227.309 455.924L237.497 456.12C241.666 452.922 245.435 447.663 248.961 443.714L273.159 416.514L277.435 420.539L240.617 462.515L218.385 462.515C219.847 460.927 222.808 456.754 224.547 455.882L227.309 455.924Z"/>
	<path fill="#FEF67D" d="M271.934 410.776L278.75 417.534C278.595 418.88 278.145 419.436 277.435 420.539L273.159 416.514L248.961 443.714C245.435 447.663 241.666 452.922 237.497 456.12L227.309 455.924C235.302 449.881 240.239 442.541 246.485 434.93L258.258 421.839C259.994 419.938 261.609 417.208 263.715 415.806L271.934 410.776Z"/>
	<path fill="#FFFDFC" d="M261.554 562.231L262.116 562.503C261.129 565.629 258.764 568.243 256.68 570.722L176.482 653.349C175.376 652.313 174.348 651.762 174.054 650.25L231.462 591.684L247.994 574.762C252.275 570.401 256.551 565.771 261.554 562.231Z"/>
	<path fill="#D6BED8" d="M933.967 445.143C933.95 440.644 933.532 435.766 934.023 431.314L965.968 431.002L965.855 445.175L933.967 445.143Z"/>
	<path fill="#3CE9E6" d="M371.955 287.075L371.864 278.301L427.988 278.303L427.969 286.96L371.955 287.075Z"/>
	<path fill="#6A4F7E" d="M805.84 510.609L850.484 511.007L850.508 521.571C845.876 521.54 840.917 521.147 836.347 521.93L805.875 522.015L805.84 510.609Z"/>
	<path fill="#3CE9E6" d="M171.699 478.049C168.141 478.041 139.884 478.663 138.75 477.989C138.207 477.666 137.794 477.163 137.316 476.75C136.551 474.187 136.395 469.448 137.522 467C138.419 466.136 139.104 465.493 140.402 465.293C142.992 464.893 146.461 465.377 149.137 465.384L173.341 465.419L180.701 465.594L171.699 478.049Z"/>
	<path fill="#FFFDFC" d="M165.559 469.209C167.316 469.351 169.029 469.17 170.454 470.25C170.22 471.735 170.23 472.14 169.292 473.283C162.473 474.101 155.106 473.183 148.181 473.389C146.73 473.596 144.929 474.232 143.75 473.356C143.652 471.732 143.306 470.893 144.25 469.53L165.559 469.209Z"/>
	<path fill="#6A4F7E" d="M880.278 535.495C874.668 531.314 867.12 528.465 862.018 523.781L861.692 503.504L880.937 503.515C880.789 513.994 881.602 525.121 880.278 535.495Z"/>
	<path fill="#4C355E" d="M524.548 676.173L543.494 672.225L528.917 703.714L512.497 708.813C514.943 700.848 518.596 693.075 521.648 685.311C522.605 682.876 524.95 678.685 524.548 676.173Z"/>
	<path fill="#4C355E" d="M684.492 558.486L684.491 581.781L662.496 581.995L662.497 558.484L684.492 558.486Z"/>
	<path fill="#4C355E" d="M507.153 585.493L564.16 585.642L545.678 591.054L499.642 603.098L507.153 585.493Z"/>
	<path fill="#3DEBD1" d="M183.565 459.498L136.635 459.507C136.528 456.007 135.92 452.445 137.84 449.347C138.362 448.929 138.522 448.737 139.25 448.525C140.867 448.054 143.303 448.236 145 448.234L156.116 448.313L190.866 448.423C188.978 451.25 184.304 456.344 183.565 459.498Z"/>
	<path fill="#BE3E40" d="M223.141 725.125L223.929 725.295C230.824 726.664 238.963 725.229 246.051 725.605C245.746 732.083 246.273 740.514 240.999 745.25C239.381 746.703 237.614 747.797 235.483 748.269C230.583 749.354 223.587 748.44 218.476 748.386C213.258 748.33 207.892 748.768 202.704 748.351C202.08 748.301 201.553 748.214 200.958 748.026L210.867 747.983C212.423 746.724 213.502 744.215 214.519 742.5C217.782 736.999 221.478 731.364 223.141 725.125Z"/>
	<path fill="#FDDB62" d="M248.501 466.913L247.108 464.5C251.401 458.503 257.54 452.988 262.56 447.532L293.02 414.232L428.208 414.461C428.349 415.348 428.456 415.835 428.25 416.724L427.641 416.726C425.913 416.821 424.192 417.556 422.487 417.892C419.503 418.479 416.268 418.621 413.258 418.178L293.804 417.687L265.381 447.904C260.515 452.795 255.184 457.482 250.598 462.619C249.805 463.507 249.377 464.399 248.981 465.502L248.673 466.348L248.501 466.913Z"/>
	<path fill="#FEF67D" d="M789.669 368.108C795.926 367.384 803.93 367.729 810.214 368.227C810.473 368.248 810.74 368.357 810.992 368.293C812.178 367.99 845.321 338.544 849.036 335.255L857.662 327.274C858.356 326.649 859.94 325.176 860.831 325.023C863.474 324.569 867.079 325.04 869.821 325.048L871.25 325.966L870.82 330.518L870.993 335.697L870.179 335.949C867.257 336.457 864.154 335.978 861.624 334.509L819.935 367.646C816.971 369.634 813.527 372.407 810.176 373.605C807.835 374.441 804.107 374.044 801.589 374.056L782.255 374.076L780.947 374.055L780.942 369.25C781.927 367.991 787.337 368.452 789.215 368.179L789.669 368.108Z"/>
	<path fill="#FDDB62" d="M861.624 334.509C864.134 333.189 869.135 332.457 870.82 330.518L870.993 335.697L870.179 335.949C867.257 336.457 864.154 335.978 861.624 334.509Z"/>
	<path fill="#DF5C49" d="M871.149 336.046C875.602 336.091 880.334 336.474 884.75 335.958L885.458 332.72L885.112 370.041L870.944 369.046L870.983 384.055L857.81 383.961L854.153 369.004L870.987 369.159L871.111 336.633L871.149 336.046Z"/>
	<defs>
		<linearGradient id="gradient_1" gradientUnits="userSpaceOnUse" x1="874.57306" y1="420.63583" x2="824.66766" y2="364.95932">
			<stop offset="0" stop-color="#FFEAE1"/>
			<stop offset="1" stop-color="#FFFFF6"/>
		</linearGradient>
	</defs>
	<path fill="url(#gradient_1)" d="M792.472 391.006L866.094 390.982L889.794 390.973C893.779 390.976 898.049 390.689 902 391.023C903.341 391.136 904.225 391.293 905.25 392.203C905.062 393.602 904.328 394.902 903.75 396.177L902.868 397.25C900.312 398.103 897.121 397.749 894.425 397.748L878.048 397.709L823.391 397.594L806.257 397.548C803.737 397.541 800.876 397.843 798.41 397.509C796.749 397.285 793.637 392.478 792.472 391.006Z"/>
	<path fill="#4C355E" d="M604.497 400.536L604.462 384.289L645.838 384.498L656.356 398.5L655.322 400.028L604.497 400.536Z"/>
	<path fill="#F9823F" d="M173.775 677.087L174.066 676.676C175.59 674.467 176.464 671.09 178.246 669.251L194.717 685.5C197.051 687.818 199.862 692.014 202.961 692.92L203.308 693.223C206.225 695.803 208.885 698.695 211.632 701.453C213.359 703.188 214.974 705.093 217.293 706.042C219.256 706.846 221.796 707.064 223.895 707.292C227.442 707.676 230.985 707.358 234.468 708.253C233.297 710.677 230.131 718.423 227.75 719L224.977 719.095L214.881 718.908C206.799 713.606 200.091 705.314 193.558 698.205L173.775 677.087Z"/>
	<path fill="#927CA2" d="M498.062 459.239L621.882 459.053C621.548 459.705 620.444 460.248 619.841 460.663C617.195 462.48 614.655 464.074 611.734 465.405C606.225 465.97 600.627 465.734 595.094 465.714L569.757 465.61L488.278 465.5L489.216 464.321C490.301 463.009 492.724 460.276 494.25 459.614C495.008 459.286 497.166 459.328 498.062 459.239Z"/>
	<path fill="#7F618C" d="M562.977 510.373L595.14 510.079C595.133 513.136 594.544 517.471 595.141 520.378L595.068 529.488C595.034 531.251 595.494 533.726 594.25 534.982L562.992 535.041L562.977 510.373Z"/>
	<path fill="#6A4F7E" d="M749 510.44L793.452 510.444L805.074 510.455L805.84 510.609L805.875 522.015L793.334 521.994L748.986 522.071L736.218 521.995C736.268 518.704 736.822 514.398 736.028 511.25L734.149 510.86L736.524 510.544L749 510.44Z"/>
	<path fill="#4C355E" d="M749 510.44L793.452 510.444L805.074 510.455L805.84 510.609L805.875 522.015L793.334 521.994L793.345 510.893L748.999 510.885L748.986 522.071L736.218 521.995C736.268 518.704 736.822 514.398 736.028 511.25L734.149 510.86L736.524 510.544L749 510.44Z"/>
	<path fill="#4C355E" d="M527.385 402.961L527.023 384.761L580.487 384.872L580.045 400.004C574.159 400.002 532.043 399.246 530.203 400.25C529.373 400.703 528.109 402.265 527.385 402.961Z"/>
	<path fill="#4C355E" d="M448.821 401.358C448.01 395.951 448.338 389.971 448.451 384.504L501.996 384.405C502.012 386.748 502.606 400.832 501.667 401.856C501.336 400.892 501.601 401.377 500.75 400.472C494.554 399.481 487.632 400.012 481.336 400.007C470.736 399.998 459.2 399.065 448.821 401.358Z"/>
	<path fill="#BE3E40" d="M841.476 592.036L841.51 598.997L716.637 598.993L716.483 557.145C716.471 550.413 715.698 542.553 716.894 535.988L717.162 537.138L716.98 560.011L717.067 591.068L741.559 591.05C745.752 591.046 750.302 591.391 754.445 590.932C755.345 591.582 757.651 593.708 758.581 593.917C760.409 594.329 763.358 593.948 765.285 593.96L785.144 594.028C788.895 594.072 792.739 594.941 796.462 594.323C798.735 593.946 800.371 592.739 802.176 591.385L841.476 592.036Z"/>
	<path fill="#F9823F" d="M782.255 374.076L801.589 374.056C804.107 374.044 807.835 374.441 810.176 373.605C813.527 372.407 816.971 369.634 819.935 367.646C820.647 368.246 821.326 368.679 822.25 368.897C824.868 369.514 828.736 369.02 831.491 369.019L854.153 369.004L857.81 383.961L819.356 384.025C812.672 384.041 805.406 383.482 798.796 384.421L794.729 384.325C794.362 383.479 793.931 382.799 793.352 382.089C792.423 380.95 787.354 374.847 786.25 374.498C785.185 374.162 783.401 374.197 782.255 374.076Z"/>
	<path fill="#4C355E" d="M541.093 636.163L560.798 631.622L560.984 631.945L546.154 663.484L527.515 668.489C524.26 669.948 519.716 671.23 516.153 671.618L524.203 651.578C525.743 647.755 527.958 643.721 528.544 639.636L541.093 636.163Z"/>
	<path fill="#605A5F" d="M528.544 639.636L541.093 636.163C540.545 640.038 538.251 643.982 536.682 647.57L527.515 668.489C524.26 669.948 519.716 671.23 516.153 671.618L524.203 651.578C525.743 647.755 527.958 643.721 528.544 639.636Z"/>
	<path fill="#7F618C" d="M646.362 462.242L838.904 462.38L888.706 462.439L901.648 462.45C903.437 462.451 905.488 462.14 907.112 462.927C907.365 463.937 907.364 464.05 907.029 465.036C903.659 466.437 896.559 465.482 892.75 465.475L631.35 465.978C632.321 465.023 633.8 463.372 634.975 462.733C635.637 462.372 637.147 462.469 637.924 462.448L646.362 462.242Z"/>
	<defs>
		<linearGradient id="gradient_2" gradientUnits="userSpaceOnUse" x1="328.02567" y1="473.46014" x2="331.88678" y2="413.89066">
			<stop offset="0" stop-color="#FDF174"/>
			<stop offset="1" stop-color="#F6E8C1"/>
		</linearGradient>
	</defs>
	<path fill="url(#gradient_2)" d="M248.501 466.913L248.673 466.348L248.981 465.502C249.377 464.399 249.805 463.507 250.598 462.619C255.184 457.482 260.515 452.795 265.381 447.904L293.804 417.687L413.258 418.178C411.812 419.473 411.501 419.733 410.854 421.651C409.206 422.408 406.532 422.111 404.712 422.136L388.734 422.244L319.405 422.483C316.351 422.485 300.051 421.702 298.204 422.813C296.428 423.881 294.772 425.829 293.338 427.307L285.138 435.864L251.734 470.475L248.501 466.913Z"/>
	<path fill="#3DEBD1" d="M515.587 519.392L515.708 519.317L515.994 509.964L556.475 510.019L556.482 532.995L516.002 533.041L515.581 522.785L515.587 519.392Z"/>
	<path fill="#F9823F" d="M738.589 368.816L739.159 368.949C742.478 369.694 745.736 369.995 749.136 370.029C750.609 370.044 753.909 369.622 755.162 370.03C756.909 370.599 760.174 374.107 761.577 375.381L773.972 387.016L791.055 406.357C793.23 408.781 795.576 412.102 798.514 413.506C798.309 414.088 797.871 414.711 797.563 415.25C795.36 416.224 793.027 416.01 790.663 416.02L776.329 415.711L738.589 368.816Z"/>
	<path fill="#F9823F" d="M667.679 369.359L680.643 369.949C681.854 369.985 684.373 369.708 685.353 370.076C686.28 370.424 687.695 371.741 688.516 372.363C694.547 376.933 699.918 383.361 704.954 389L706.27 390.504L718.25 405.04C721.212 408.384 724.378 412.151 728.538 414.019C728.27 414.818 727.878 415.186 727.331 415.812C723.343 416.668 719.222 416.56 715.162 416.51L706.541 416.285C706.012 416.267 704.292 416.368 703.884 416.193C703.532 416.042 702.736 414.832 702.439 414.464C699.946 411.377 697.832 407.941 695.562 404.683C686.776 392.073 678.455 380.399 667.679 369.359Z"/>
	<path fill="#4C355E" d="M933.967 445.143L965.855 445.175L965.667 464.159C966.533 467.773 965.919 472.917 965.956 476.712L933.722 477.018L933.916 458.91L933.967 445.143Z"/>
	<path fill="#DF5C49" d="M854.438 560.01L854.541 535L855.25 534.496C857.138 534.929 858.009 535.44 859.446 536.727L891.984 554.762L863.634 579.408C861.553 581.194 856.79 586.457 854.38 586.894L854.438 560.01Z"/>
	<path fill="#FEF67D" d="M854.438 560.01L854.541 535L855.25 534.496C857.138 534.929 858.009 535.44 859.446 536.727L872.129 559.491L854.438 560.01Z"/>
	<path fill="#FEF67D" d="M487.196 610.957L494.404 610.992L476.643 656.605L466.019 682.83L453.848 715.134C451.886 720.311 450.237 727.5 447.024 731.893C445.507 732.113 444.792 733.245 443.937 734.5C442.002 737.34 441.435 742.584 437.879 743.815C436.974 744.129 436.105 744.015 435.179 743.918C435.029 742.013 435.363 740.151 435.948 738.336C439.949 725.939 445.848 713.768 450.676 701.627L487.196 610.957Z"/>
	<path fill="#3E1F4B" d="M598.939 509.963L598.954 502.496L736.529 503.02C736.541 505.28 736.903 508.362 736.524 510.544L734.149 510.86L723.598 510.907C718.993 510.311 714.027 510.65 709.37 510.638L683.021 510.549L598.939 509.963Z"/>
	<path fill="#F49C3B" d="M861.624 334.509C864.154 335.978 867.257 336.457 870.179 335.949L870.993 335.697L871.149 336.046L871.111 336.633L870.987 369.159L854.153 369.004L831.491 369.019C828.736 369.02 824.868 369.514 822.25 368.897C821.326 368.679 820.647 368.246 819.935 367.646L861.624 334.509Z"/>
	<path fill="#4C355E" d="M508.722 608.404L579.594 589.515L564.515 623.752L544.535 628.505C541.132 629.749 537.848 630.559 534.235 630.892L544.611 605.754C532.838 607.078 520.538 608.84 508.722 608.404Z"/>
	<path fill="#605A5F" d="M544.611 605.754L555.042 604.256L544.535 628.505C541.132 629.749 537.848 630.559 534.235 630.892L544.611 605.754Z"/>
	<path fill="#DF5C49" d="M90.3898 457.811L90.5116 447.112C90.7152 445.77 93.0668 443.54 94.1166 442.721C96.2024 441.094 99.6707 441.758 102.097 442.057C103.003 442.3 104.617 442.402 105.028 443.294C105.634 444.61 105.428 446.179 105.431 447.595L105.438 457.525L105.454 495.706L105.458 505.65C105.46 506.76 105.692 508.354 105.414 509.385C105.332 509.686 105.207 509.98 105.035 510.241C104.24 511.445 102.618 512.706 101.572 513.735C98.8547 516.408 95.5087 520.518 91.5412 520.982C91.7362 520.489 91.8228 520.336 91.9026 519.742C92.1874 517.621 91.9393 515.071 91.9369 512.909C91.9322 508.699 92.9228 497.978 90.4376 494.838C89.9484 493.699 90.2472 490.079 90.2101 488.703L90.3898 457.811Z"/>
	<path fill="#FDDB62" d="M90.3898 457.811L90.5116 447.112C90.7152 445.77 93.0668 443.54 94.1166 442.721C96.2024 441.094 99.6707 441.758 102.097 442.057L101.392 442.446C97.6082 444.482 95.1618 444.874 92.0497 448.203L91.25 475.043L90.7412 475.25L90.3898 457.811Z"/>
	<path fill="#4C355E" d="M315.221 406.576C311.993 407.153 308.523 406.951 305.245 406.969L288.834 406.998L308.441 383.765L345.982 384.018L346.027 400.009L346.177 406.996L315.221 406.576Z"/>
	<path fill="#7F618C" d="M315.221 406.576L301.825 406.475C304.889 404.439 308.271 402.059 311.824 401.002L312.443 400.829C317.191 399.463 322.405 399.776 327.299 399.812L346.027 400.009L346.177 406.996L315.221 406.576Z"/>
	<path fill="#DF5C49" d="M716.98 560.011L752.055 560.138L752.115 574.372C752.065 580.521 751.556 585.292 754.445 590.932C750.302 591.391 745.752 591.046 741.559 591.05L717.067 591.068L716.98 560.011Z"/>
	<defs>
		<linearGradient id="gradient_3" gradientUnits="userSpaceOnUse" x1="322.46353" y1="589.71906" x2="411.31549" y2="635.16791">
			<stop offset="0" stop-color="#4D355E"/>
			<stop offset="1" stop-color="#6A5281"/>
		</linearGradient>
	</defs>
	<path fill="url(#gradient_3)" d="M431.089 582.492L440.06 582.507L392.316 640.759C391.767 641.303 390.576 642.575 389.91 642.821C388.532 643.329 385.925 642.991 384.435 642.991L368.665 642.997L296.75 642.99L295.309 642.863L295.007 642L302.567 629.845C303.84 631.291 305.026 632.906 306.476 634.178C308.361 635.83 309.944 636.221 312.384 636.545C321.379 637.741 331.211 636.752 340.331 636.818L367.026 636.991C371.862 637.004 376.966 637.312 381.775 636.86C383.017 636.743 384.597 636.572 385.656 635.848C393.597 630.421 399.863 620.572 405.918 613.195L431.089 582.492Z"/>
	<path fill="#4C355E" d="M557.615 453.579L498.974 453.765L500.389 452.345L510.817 442.401C511.482 441.754 513.586 439.226 514.335 438.972C515.563 438.556 517.819 438.804 519.119 438.802L528.702 438.793L575.883 438.865C577.801 440.415 579.375 442.641 580.995 444.5C583.243 447.08 585.799 449.582 587.51 452.562L587.428 453.355L557.615 453.579Z"/>
	<path fill="#7F618C" d="M557.615 453.579L512.154 453.434L518.543 447.663C518.74 447.497 519.811 446.457 520.034 446.407C523.125 445.71 527.963 446.374 531.302 446.348L577.683 446.46C579.413 446.53 580.356 448.26 581.394 449.452C583.567 451.949 584.204 452.328 587.51 452.562L587.428 453.355L557.615 453.579Z"/>
	<path fill="#DF5C49" d="M805.581 552.058L805.775 552.687C806.364 554.776 805.859 557.833 805.765 560.02L831.059 560.049C834.328 560.054 838.286 559.635 841.465 560.101L841.476 592.036L802.176 591.385C802.983 590.571 804.736 588.743 805.107 587.702C805.994 585.211 805.386 579.96 805.394 577.261L805.581 552.058Z"/>
	<path fill="#FEF67D" d="M428.208 414.461L535.5 413.994L580.538 414.458L624.678 414.245C631.485 414.214 639.806 413.267 646.453 414.628L646.827 415.418L645.936 417.142C640.635 419.049 632.702 418.083 627.055 418.089L591.798 418.148L569.5 418.998L541.398 419.135L520.447 419.993L494.75 420.09L472.75 420.993L450.846 421.095L429.25 421.996L410.854 421.651C411.501 419.733 411.812 419.473 413.258 418.178C416.268 418.621 419.503 418.479 422.487 417.892C424.192 417.556 425.913 416.821 427.641 416.726L428.25 416.724C428.456 415.835 428.349 415.348 428.208 414.461Z"/>
	<path fill="#4C355E" d="M371.918 406.932L370.948 406.233L371.003 384.006L423.975 383.837L423.744 402.677L423.449 406.25C420.486 407.926 412.574 407.008 408.982 407.004L371.918 406.932Z"/>
	<path fill="#7F618C" d="M371.918 406.932C371.043 405.105 371.555 402.31 371.682 400.31L372.395 400.216C380.528 399.192 389.184 399.645 397.389 399.541C404.175 399.455 412.47 398.463 419.083 399.933C420.892 400.335 422.306 401.573 423.744 402.677L423.449 406.25C420.486 407.926 412.574 407.008 408.982 407.004L371.918 406.932Z"/>
	<path fill="#927CA2" d="M508.722 608.404C520.538 608.84 532.838 607.078 544.611 605.754L534.235 630.892L482.939 644.393L495.283 611.544L508.722 608.404Z"/>
	<path fill="#927CA2" d="M478.496 656.34L480.357 652.49C485.312 650.511 490.947 649.511 496.127 648.147L528.544 639.636C527.958 643.721 525.743 647.755 524.203 651.578L516.153 671.618L481.246 680.585C477.055 681.648 472.41 683.471 468.121 683.696L466.019 682.83L476.643 656.605L478.496 656.34Z"/>
	<path fill="#3E1F4B" d="M476.643 656.605L478.496 656.34L468.121 683.696L466.019 682.83L476.643 656.605Z"/>
	<path fill="#7F618C" d="M433.489 367.467C443.924 366.365 454.54 366.761 465.02 366.821L508.391 367L651.89 366.504L652.421 367.18L661.058 376.299L651.012 376.427C651.116 375.968 651.082 376.225 651.059 375.558C651.028 374.682 650.613 374.603 650 374.026C645.937 375.018 640.855 374.046 636.627 374.024L604.951 374.001L479.058 373.357L456.865 373C453.769 373.008 450.643 373.572 447.566 373.395C446.2 373.317 442.935 373.371 441.755 372.814C440.08 372.024 438.538 370.441 436.833 369.537L433.489 367.467Z"/>
	<path fill="#F9823F" d="M585.989 591.979L590.424 592.16L590.895 593L555.624 676.123L543.915 703.543C542.382 707.154 541.188 711.246 539.297 714.663C538.497 716.109 537.416 716.883 535.928 717.506C529.925 720.017 523.403 721.258 517.192 723.164L466.391 737.967L451.314 741.986C449.568 742.451 446.774 742.845 445.226 743.67C443.529 744.575 441.896 748.223 441.113 750L440.422 751.837C438.037 749.456 436.126 747.243 435.179 743.918C436.105 744.015 436.974 744.129 437.879 743.815C441.435 742.584 442.002 737.34 443.937 734.5C444.792 733.245 445.507 732.113 447.024 731.893L448.258 732.574C453.241 732.608 458.667 730.721 463.5 729.587L514.846 715.796C521.112 713.992 528.496 712.658 534.379 709.923C534.447 709.891 535.169 709.483 535.283 709.321C536.744 707.233 537.867 703.467 538.91 701.04L547.886 680.163L585.989 591.979Z"/>
	<path fill="#FEF67D" d="M311.869 356.221L306.101 355.822C307.519 352.258 309.037 349.083 311.242 345.928C315.676 339.586 323.028 332.336 331.025 331L331.75 330.889C335.291 330.302 338.894 330.495 342.475 330.49L358.663 330.478L415.758 330.428L523.383 330.002L554.669 329.987C558.513 329.974 562.537 329.488 566.353 329.716C570.079 329.939 571.588 332.331 573.963 334.882C573.392 335.223 572.889 335.719 572.25 335.903C570.587 336.385 567.183 335.957 565.361 335.976L543.088 336.088L469.177 336.024L453.817 336.043C451.492 336.05 448.665 335.757 446.406 336.093L442.208 336.05L365.953 336.018L345.608 336.024C341.657 336.027 337.389 335.68 333.525 336.551C328.24 337.743 323.691 340.941 319.931 344.74C316.602 348.104 314.122 352.085 311.869 356.221Z"/>
	<path fill="#1B9B8E" d="M427.969 286.96L427.674 299.992L427.603 301.794C428.2 306.654 427.6 312.086 427.546 317.02L372.003 317.022L371.955 287.075L427.969 286.96Z"/>
	<path fill="#3DEBD1" d="M422.987 299.999L427.674 299.992L427.603 301.794L427.315 305.891C425.87 306.248 424.439 306.088 422.969 306.012C422.791 304.066 422.972 301.961 422.987 299.999Z"/>
	<path fill="#3CE9E6" d="M422.969 306.012L382.684 305.64C381.51 305.598 378.199 305.919 377.25 305.497C376.927 305.354 376.748 304.999 376.497 304.75C376.502 303.041 376.14 301.447 377.25 300.098L422.987 299.999C422.972 301.961 422.791 304.066 422.969 306.012Z"/>
	<path fill="#927CA2" d="M524.548 676.173C524.95 678.685 522.605 682.876 521.648 685.311C518.596 693.075 514.943 700.848 512.497 708.813L501.107 712.379C495.248 712.65 488.698 715.483 483.038 717.051L451.919 725.479L465.281 691.435L514.604 679.137L524.548 676.173Z"/>
	<path fill="#605A5F" d="M524.548 676.173C524.95 678.685 522.605 682.876 521.648 685.311C518.596 693.075 514.943 700.848 512.497 708.813L501.107 712.379L509.508 691.75C511.097 688.013 514.583 683.097 514.604 679.137L524.548 676.173Z"/>
	<path fill="#4C355E" d="M508.002 535.507L508.017 542.994L479.73 543.005C475.101 539.024 471.283 534.289 467.183 529.787L449.047 510.271C451.136 508.332 454.286 504.458 456.669 503.193C458.365 502.293 465.643 503.011 467.794 503.01L507.958 503.017L508.002 510.002L508.002 535.507Z"/>
	<path fill="#6A4F7E" d="M508.002 535.507L482.711 535.512L464.264 510.509L508.002 510.002L508.002 535.507Z"/>
	<path fill="#FDDB62" d="M841.21 534.934L841.465 560.101C838.286 559.635 834.328 560.054 831.059 560.049L805.765 560.02C805.859 557.833 806.364 554.776 805.775 552.687L805.581 552.058C803.755 548.418 801.247 545.174 797.249 543.775C792.192 542.006 784.322 543.174 778.973 543.248C773.496 543.324 763.457 541.973 758.623 544.655C755.884 546.175 753.134 549.262 752.334 552.34C751.724 554.686 752.029 557.708 752.055 560.138L716.98 560.011L717.162 537.138L807.696 536.986L828.407 536.961C832.425 536.958 836.83 537.342 840.73 536.337L841.21 534.934Z"/>
	<path fill="#6A4F7E" d="M205.044 475.036L216.166 485.351C219.021 487.998 222.151 490.55 224.611 493.574L201.113 493.518C196.133 493.519 190.511 492.974 185.768 494.721C182.563 495.9 180.061 497.795 177.474 499.944C165.625 509.789 154.784 521.26 143.543 531.832L75.0944 596.579L69.6144 601.138C68.5136 601.866 67.5216 601.946 66.25 601.565C64.388 601.008 62.4428 597.353 61.4534 595.813L64.3787 592.814L85.3008 573.244L141.842 519.483L164.845 497.577C168.073 494.495 171.256 491.279 174.685 488.421C175.721 487.559 177.532 485.947 178.74 485.493C179.982 485.027 182.24 485.283 183.554 485.277L196.015 485.247C199.336 482.144 202.149 478.53 205.044 475.036Z"/>
	<path fill="#FEF67D" d="M62.3812 537.28L62.0512 458.711L62.0007 437.105C61.9993 433.218 61.6883 429.046 62.3055 425.201L62.4277 424.5C63.2059 419.646 65.738 415.379 69.2315 411.964C73.0266 408.253 78.0457 405.763 83.3059 405.028C88.6528 404.281 94.2347 404.954 99.6273 404.968L133.996 404.989L255.835 405.025L255.787 405.379L248.58 413.045L135.096 412.964L134.797 412.624C133.178 410.843 131.642 410.007 129.187 410.008C126.589 410.009 125.605 411.266 123.873 412.946L99.9637 412.978C94.5491 412.91 88.4627 411.444 83.25 413.265L82.5383 413.505C76.2455 415.704 71.0529 421.269 68.3123 427.259C65.5747 433.242 65.2196 442.222 66.4335 448.722L67.0385 501.568C67.0391 508.12 67.9843 516.355 66.5323 522.65C66.2281 525.696 66.0042 528.709 65.981 531.772C65.9752 532.54 66.2602 535.419 65.9765 536C65.7861 536.39 65.3238 536.572 64.9975 536.857L62.3812 537.28Z"/>
	<defs>
		<linearGradient id="gradient_4" gradientUnits="userSpaceOnUse" x1="167.04756" y1="729.15936" x2="186.8063" y2="692.94153">
			<stop offset="0" stop-color="#F87632"/>
			<stop offset="1" stop-color="#FDAD49"/>
		</linearGradient>
	</defs>
	<path fill="url(#gradient_4)" d="M147.32 673.56L156.232 682.636C158.678 683.14 160.899 684.087 163.446 684.028C165.704 683.976 168.182 683.088 170.457 682.742L203.95 717.549L209.026 722.753C209.355 723.089 210.379 724.344 210.74 724.503C211.251 724.727 213.131 724.618 213.772 724.649L223.141 725.125C221.478 731.364 217.782 736.999 214.519 742.5C213.502 744.215 212.423 746.724 210.867 747.983L200.958 748.026C198.25 747.543 195.99 746.379 193.918 744.609C186.747 738.486 180.495 730.34 173.821 723.58L148.749 698.327C144.551 694.103 139.471 689.821 136.006 684.987C139.09 683.615 141.286 680.722 143.521 678.28C144.926 676.868 146.101 675.136 147.32 673.56Z"/>
	<path fill="#BE3E40" d="M147.32 673.56L156.232 682.636C160.285 689.007 167.287 694.725 172.502 700.25L192.526 721.252C195.013 723.783 197.679 727.059 200.526 729.125C203.822 731.517 208.716 730.417 211.406 732.75C209.677 734.2 207.545 734.821 205.303 734.973C202.7 735.15 200.057 734.641 197.874 733.158C193.712 730.333 190.013 725.805 186.588 722.129L172.087 706.752L143.521 678.28C144.926 676.868 146.101 675.136 147.32 673.56Z"/>
	<path fill="#F9823F" d="M457.114 561.349L423.162 526.168C424.632 524.306 426.771 522.887 428.557 521.313L439.323 511.526L477.111 552.508L597.948 552.492L633.572 552.477C639.786 552.47 646.21 551.939 652.374 552.681L653.091 553.973L652.825 558.497C650.505 559.894 596.386 558.973 588.145 559.04L552.297 559.931L514.234 559.991C497.644 559.993 481.044 559.663 464.487 560.778C462.099 560.939 459.421 560.728 457.114 561.349Z"/>
	<path fill="#31073F" d="M752.055 560.138C752.029 557.708 751.724 554.686 752.334 552.34C753.134 549.262 755.884 546.175 758.623 544.655C763.457 541.973 773.496 543.324 778.973 543.248C784.322 543.174 792.192 542.006 797.249 543.775C801.247 545.174 803.755 548.418 805.581 552.058L805.394 577.261C805.386 579.96 805.994 585.211 805.107 587.702C804.736 588.743 802.983 590.571 802.176 591.385C800.371 592.739 798.735 593.946 796.462 594.323C792.739 594.941 788.895 594.072 785.144 594.028L765.285 593.96C763.358 593.948 760.409 594.329 758.581 593.917C757.651 593.708 755.345 591.582 754.445 590.932C751.556 585.292 752.065 580.521 752.115 574.372L752.055 560.138Z"/>
	<path fill="#FDDB62" d="M760.4 556.863L764.049 557.561L764.39 581.901C763.195 582.304 761.402 582.686 760.361 583.338L760.4 556.863Z"/>
	<path fill="#BE3E40" d="M792.473 581.929L796.256 582.778C796.037 584.81 795.862 585.971 794.628 587.629C791.745 589.691 767.977 588.634 763 588.012C761.699 587.13 760.886 586.315 760.555 584.716L760.361 583.338C761.402 582.686 763.195 582.304 764.39 581.901L792.473 581.929Z"/>
	<path fill="#FEF67D" d="M760.4 556.863C760.482 554.96 760.582 553.87 761.622 552.25C763.722 550.998 766.959 551.253 769.376 551.151C777.739 550.8 786.152 550.902 794.5 551.519C795.617 552.308 796.235 552.54 796.485 554C796.953 556.728 796.553 560.255 796.539 563.052C796.511 568.683 796.974 574.53 795.811 580.049C795.58 581.146 795.834 581.775 796.256 582.778L792.473 581.929L792.682 557.8C790.772 556.986 787.332 557.48 785.144 557.479L764.049 557.561L760.4 556.863Z"/>
	<path fill="#DF5C49" d="M764.049 557.561L785.144 557.479C787.332 557.48 790.772 556.986 792.682 557.8L792.473 581.929L764.39 581.901L764.049 557.561Z"/>
	<path fill="#BE3E40" d="M585.989 591.979L588.693 585.496L606.87 585.499L565.16 681.1L552.853 709.231C551.024 713.4 549.386 718.327 546.901 722.143C546.012 723.508 544.483 723.942 543 724.499C519.876 733.18 495.708 739.279 471.969 746.011L455.271 750.762C451.025 752.015 447.263 753.63 442.75 753.422L440.422 751.837L441.113 750C441.896 748.223 443.529 744.575 445.226 743.67C446.774 742.845 449.568 742.451 451.314 741.986L466.391 737.967L517.192 723.164C523.403 721.258 529.925 720.017 535.928 717.506C537.416 716.883 538.497 716.109 539.297 714.663C541.188 711.246 542.382 707.154 543.915 703.543L555.624 676.123L590.895 593L590.424 592.16L585.989 591.979Z"/>
	<path fill="#4C355E" d="M598.939 509.963L683.021 510.549L709.37 510.638C714.027 510.65 718.993 510.311 723.598 510.907L719.524 511.158C718.13 513.289 719.247 519.283 719.027 522.01C710.299 521.825 693.957 519.665 687.14 525.75C684.768 527.867 683.671 531.042 682.771 534.005L666.707 534.025C664.707 534.031 661.655 533.677 659.805 534.339C658.965 534.64 657.579 535.755 656.928 536.421C655.331 538.055 654.163 540.138 652.806 541.973C652.355 542.584 652.285 542.746 651.494 542.991L562.966 543.021L562.992 535.041L594.25 534.982C595.494 533.726 595.034 531.251 595.068 529.488C595.456 531.794 595.192 534.185 595.505 536.5C595.715 538.051 596.079 538.511 597.25 539.503L598.42 539.385C599.384 537.288 598.853 533.351 598.865 531.032L598.939 509.963Z"/>
	<defs>
		<linearGradient id="gradient_5" gradientUnits="userSpaceOnUse" x1="432.84021" y1="465.36252" x2="488.92801" y2="314.94095">
			<stop offset="0" stop-color="#A777BE"/>
			<stop offset="1" stop-color="#BD9CCB"/>
		</linearGradient>
	</defs>
	<path fill="url(#gradient_5)" d="M650.302 376.506L597.777 377.006L597.532 407.499L586.587 407.489L586.534 377.007L520.107 377.002L520.011 407.229L508.974 407.214L508.959 376.991L441.523 377.007L441.482 407.501L430.399 407.492L430.423 376.996L364.046 377L363.962 407.271L353.104 407.493L353.193 376.993L305.677 377.009L279.224 409.998L271.741 402.239L298.712 367.497L433.489 367.467L436.833 369.537C438.538 370.441 440.08 372.024 441.755 372.814C442.935 373.371 446.2 373.317 447.566 373.395C450.643 373.572 453.769 373.008 456.865 373L479.058 373.357L604.951 374.001L636.627 374.024C640.855 374.046 645.937 375.018 650 374.026C650.613 374.603 651.028 374.682 651.059 375.558C651.082 376.225 651.116 375.968 651.012 376.427L650.302 376.506Z"/>
	<path fill="#F9823F" d="M123.873 412.946C125.605 411.266 126.589 410.009 129.187 410.008C131.642 410.007 133.178 410.843 134.797 412.624L135.096 412.964L248.58 413.045L234.918 428.317L137.498 428.253L111.539 428.232C106.11 428.182 100.566 427.604 95.1771 428.456C91.8624 428.98 89.2096 430.961 86.8865 433.287L85.0912 435.25L84.5789 435.783C83.5215 436.975 83.374 438.386 83.2747 439.908C82.7362 448.161 83.4416 456.796 83.4532 465.102L83.444 522.996C77.5687 527.366 72.6051 532.828 66.4219 536.799C66.4833 539.533 66.8323 542.37 65.75 544.932L62.4595 547.271L62.3812 537.28L64.9975 536.857C65.3238 536.572 65.7861 536.39 65.9765 536C66.2602 535.419 65.9752 532.54 65.981 531.772C66.0042 528.709 66.2281 525.696 66.5323 522.65C67.9843 516.355 67.0391 508.12 67.0385 501.568L66.4335 448.722C65.2196 442.222 65.5747 433.242 68.3123 427.259C71.0529 421.269 76.2455 415.704 82.5383 413.505L83.25 413.265C88.4627 411.444 94.5491 412.91 99.9637 412.978L123.873 412.946Z"/>
	<path fill="#31073F" d="M123.873 412.946C125.605 411.266 126.589 410.009 129.187 410.008C131.642 410.007 133.178 410.843 134.797 412.624L135.096 412.964C135.463 414.319 135.593 415.848 135.589 417.25C135.585 418.916 134.699 420.232 133.477 421.287C132.196 422.391 130.558 422.895 128.872 422.739C127.025 422.568 125.631 421.453 124.552 420.003C122.962 417.867 123.402 415.385 123.873 412.946Z"/>
	<path fill="#6A4F7E" d="M66.4335 448.722C68.313 448.529 69.5143 448.131 71.25 448.934C71.6985 449.517 71.9859 450.014 72.0832 450.759C73.2924 460.017 72.1995 470.405 72.091 479.754L71.9181 521.25C70.9272 522.495 70.3276 522.403 68.75 522.557L66.5323 522.65C67.9843 516.355 67.0391 508.12 67.0385 501.568L66.4335 448.722Z"/>
	<path fill="#3DEBD1" d="M667.012 394.993C669.711 393.714 674.514 394.443 677.458 394.575L699.57 423.952L720.948 424.265C724.543 424.25 728.708 424.633 732.052 423.101C734.807 420.161 737.753 414.6 737.54 410.423C737.405 407.776 735.256 405.805 733.523 404.015L755.357 403.993L771.095 423.979L796.328 424.104C798.834 424.207 800.883 423.545 802.769 421.869C805.755 419.216 807.805 414.658 808.946 410.898L805.542 405.766L827.881 405.484L841.569 423.501L872.769 423.795L885.079 405.643L907.543 405.501L907.486 432.511L732.571 432.517L682.205 432.491C674.072 432.478 665.991 431.533 657.876 432.556L656.25 431.885C655.875 430.485 656.699 429.313 657.272 428.018C659.841 422.215 663.087 416.683 665.922 411.005L670.461 401.078L667.012 394.993Z"/>
	<path fill="#31073F" d="M674.775 411.25L675.701 411.152C677.226 411.179 678.764 411.967 679.75 413.115C680.821 414.362 680.919 415.683 680.907 417.25C679.993 418.873 679.312 419.598 677.75 420.602L676.928 420.763C675.619 420.858 674.174 420.413 673.25 419.452C672.138 418.296 671.848 416.815 672.044 415.25C672.257 413.533 673.537 412.313 674.775 411.25Z"/>
	<path fill="#31073F" d="M747.37 411.75C748.829 411.215 750.879 411.166 752.25 412.004C753.778 412.938 754.037 414.17 754.398 415.75C753.901 417.718 753.207 418.637 751.75 420.031L750.719 420.549C748.932 420.435 748.014 420.098 746.654 418.844C745.525 417.804 744.694 416.335 744.985 414.75C745.275 413.165 746.221 412.695 747.37 411.75Z"/>
	<path fill="#31073F" d="M819.095 411.75C819.605 411.524 819.628 411.483 820.272 411.38C821.737 411.147 823.411 411.469 824.556 412.431C825.77 413.45 826.294 415.204 825.985 416.75C825.655 418.408 824.488 419.311 823.25 420.328C822.779 420.508 822.422 420.671 821.9 420.729C820.694 420.862 819.606 420.524 818.653 419.788C817.219 418.68 816.857 417.472 816.586 415.75C817.15 413.838 817.53 413.012 819.095 411.75Z"/>
	<path fill="#31073F" d="M890.461 411.25L891.215 411.117C893.116 410.827 894.562 411.331 896.085 412.425C897.018 414.3 896.967 414.739 896.86 416.75C895.93 418.411 895.137 419.173 893.577 420.25C892.666 420.422 891.677 420.429 890.75 420.503C889.735 420.147 889.138 419.732 888.442 418.895C886.987 417.142 886.886 415.995 887.037 413.75C888.242 412.185 888.713 412.021 890.461 411.25Z"/>
	<path fill="#927CA2" d="M907.066 440.489C907.705 441.959 907.496 443.562 907.493 445.133L907.445 456.756L637.264 456.991L642.624 445.256C643.609 443.048 644.46 440.456 646.036 438.623C647.454 438.416 648.693 438.619 650.093 438.826L676.767 439.023L722.162 439.071L854.907 439.467L891.318 439.546C895.576 439.557 902.642 438.66 906.604 439.923L907.066 440.489Z"/>
	<path fill="#31073F" d="M793.141 446.25C794.68 445.759 796.552 445.947 798.166 445.92C801.576 445.863 806.349 445.164 809.511 446.25C809.892 447.88 809.712 448.596 809.25 450.145C806.164 451.302 796.225 451.45 793.33 450.172C792.687 448.531 792.889 447.958 793.141 446.25Z"/>
	<path fill="#31073F" d="M863.109 445.51L878.826 445.425C879.052 446.03 879.2 446.357 879.319 447.03C879.572 448.464 879.301 449.242 878.449 450.343C874.035 451.093 867.66 451.662 863.407 450.113C862.66 448.742 863.016 447.02 863.109 445.51Z"/>
	<path fill="#31073F" d="M692.499 445.976C698.47 445.641 705.904 444.653 711.747 445.773C711.47 447.653 711.565 448.769 710.335 450.25C705.557 451.351 699.352 450.852 694.5 450.379C693.014 449.064 692.875 447.874 692.499 445.976Z"/>
	<path fill="#D6BED8" d="M650.093 438.826L676.767 439.023L722.162 439.071L854.907 439.467L891.318 439.546C895.576 439.557 902.642 438.66 906.604 439.923L907.066 440.489L906.884 444.5C904.24 446.069 883.976 444.729 878.826 445.425L863.109 445.51C857.404 444.941 851.609 445.201 845.881 445.244L819.507 445.461L744.665 445.739L722.707 445.851C719.173 445.87 715.23 446.234 711.747 445.773C705.904 444.653 698.47 445.641 692.499 445.976C687.615 446.473 682.456 446.047 677.534 446.037L646.345 445.993L650.093 438.826Z"/>
	<path fill="#7F618C" d="M83.444 522.996L83.8946 523.515C86.1479 526.057 88.2267 527.591 91.6719 527.83C95.0219 528.063 96.7431 527.634 99.2828 525.373L111.54 513.098L111.65 462.684L111.656 448.592C111.646 446.182 111.878 443.423 111.487 441.053C111.374 440.37 111.413 440.611 110.804 440.003C107.264 436.474 104.481 435.391 99.4906 435.4C96.6835 435.405 94.0058 435.36 91.9143 437.527C91.0695 438.402 90.406 439.5 89.75 440.52L89.4053 440C90.0122 437.978 91.0085 436.475 92.9908 435.546C94.3183 434.925 95.7365 434.91 97.1698 434.914L112.5 435.488L172.639 435.505C190.388 435.493 208.39 434.599 226.093 435.677L222.286 441.999L155.529 441.753L139.877 442.107C138.847 442.164 136.263 442.07 135.434 442.485C134.615 442.895 133.273 444.368 132.59 445.063C129.835 447.866 129.65 452.858 129.785 456.579C129.881 459.231 130.435 461.28 131.874 463.5L131.598 464.042C129.537 468.187 128.478 474.615 130.166 479.098C131.076 481.514 133.068 483.4 135.496 484.247C138.825 485.408 144.966 484.581 148.62 484.539L172.157 484.48L62.387 588.184L62.4595 547.271L65.75 544.932C66.8323 542.37 66.4833 539.533 66.4219 536.799C72.6051 532.828 77.5687 527.366 83.444 522.996Z"/>
	<path fill="#4C355E" d="M261.554 562.231L261.941 561.813C263.468 560.14 264.5 558.95 264.374 556.601C263.879 547.343 260.474 537.909 258.7 528.799C265.232 532.89 270.509 538.47 276.158 543.631C279.609 546.784 284.989 552.609 289.397 554.257C294.173 556.043 301.986 554.915 307.151 554.895L330.562 555.038L299.193 604.054L262.015 665.153L248.666 687.656C246.326 691.613 243.839 697.028 240.187 699.886C233.841 700.233 227.652 700.471 221.346 699.435L220.545 699.322C218.894 698.925 217.286 697.06 216.176 695.855C224.74 684.982 231.396 672.384 238.544 660.565L279.667 592.356C272.094 585.439 263.403 578.397 256.68 570.722C258.764 568.243 261.129 565.629 262.116 562.503L261.554 562.231Z"/>
	<path fill="#6A4F7E" d="M256.68 570.722C263.403 578.397 272.094 585.439 279.667 592.356L238.544 660.565C231.396 672.384 224.74 684.982 216.176 695.855L176.482 653.349L256.68 570.722Z"/>
	<path fill="#F9823F" d="M573.963 334.882L596.719 356.508L311.869 356.221C314.122 352.085 316.602 348.104 319.931 344.74C323.691 340.941 328.24 337.743 333.525 336.551C337.389 335.68 341.657 336.027 345.608 336.024L365.953 336.018L442.208 336.05L446.406 336.093C448.665 335.757 451.492 336.05 453.817 336.043L469.177 336.024L543.088 336.088L565.361 335.976C567.183 335.957 570.587 336.385 572.25 335.903C572.889 335.719 573.392 335.223 573.963 334.882Z"/>
	<path fill="#31073F" d="M547.811 336.75L550.5 336.436C551.457 336.421 552.972 336.374 553.654 337.066C554.956 338.386 555.937 339.378 555.827 341.36C555.695 343.722 554.94 345.15 553.233 346.75L551.75 347.482C550.351 347.311 548.847 347.191 547.63 346.418C546.418 345.649 545.739 344.642 545.554 343.215C545.174 340.286 545.983 338.938 547.811 336.75Z"/>
	<path fill="#31073F" d="M491.589 336.75C493.588 336.126 496.328 336.451 498.445 336.437C499.292 337.863 500.342 339.444 500.388 341.152C500.45 343.43 499.216 344.961 497.716 346.514L495 347.484C494.003 347.288 493.259 347.098 492.37 346.573C491.006 345.768 490.182 344.366 489.834 342.857C489.252 340.343 490.232 338.791 491.589 336.75Z"/>
	<path fill="#31073F" d="M442.208 336.05L446.406 336.093L447.122 336.746C448.313 337.957 449.517 339.728 449.438 341.5C449.366 343.113 448.41 345.725 447.025 346.667C445.883 347.443 444.227 348.105 442.827 347.831C441.151 347.503 439.542 346.223 438.793 344.69C438.188 343.452 437.906 341.661 438.37 340.335C439.029 338.453 440.387 336.831 442.208 336.05Z"/>
	<path fill="#BE3E40" d="M653.091 553.973C654.069 559.384 653.269 565.973 653.082 571.509L438.467 571.236L421.24 552.25C418.264 548.974 415.308 545.136 411.954 542.268L294.127 542.303L214.682 466.016L240.736 466.001L299.661 526.509L417.311 526.491L445.194 554.583L451.072 560.519C451.606 561.062 452.651 562.41 453.263 562.75C453.701 562.993 454.254 562.895 454.75 562.968C455.694 562.488 456.472 562.22 457.114 561.349C459.421 560.728 462.099 560.939 464.487 560.778C481.044 559.663 497.644 559.993 514.234 559.991L552.297 559.931L588.145 559.04C596.386 558.973 650.505 559.894 652.825 558.497L653.091 553.973Z"/>
	<path fill="#4C355E" d="M907.51 478.447L907.206 492.505L460.858 493.52L481.224 472.183C485.076 471.473 489.344 471.806 493.266 471.729L518.637 471.42L593.64 471.412L746.88 471.411L826.599 471.572L877.459 471.412C887.206 471.425 897.891 470.686 907.51 472.119L907.51 478.447Z"/>
	<path fill="#7F618C" d="M826.599 471.572L877.459 471.412C887.206 471.425 897.891 470.686 907.51 472.119L907.51 478.447L488.026 485.003L496.009 471.848L825.991 471.633L826.599 471.572Z"/>
	<path fill="#F9823F" d="M410.854 421.651L429.25 421.996L450.846 421.095L472.75 420.993L494.75 420.09L520.447 419.993L541.398 419.135L569.5 418.998L591.798 418.148L627.055 418.089C632.702 418.083 640.635 419.049 645.936 417.142L629.132 452.033L604.56 451.852C601.833 451.828 597.507 452.397 595.097 451.449L583.569 437.538C581.126 434.735 578.745 431.798 575.753 429.562L525.454 429.635C522.53 429.648 516.159 428.682 513.794 429.737C512.779 430.19 510.878 432.364 510.043 433.191L420.543 522.514C407.991 522.381 302.136 522.653 301.315 522.093C299.716 521.001 298.031 518.778 296.643 517.361L265.243 484.959C260.915 480.444 255.205 475.61 251.734 470.475L285.138 435.864L293.338 427.307C294.772 425.829 296.428 423.881 298.204 422.813C300.051 421.702 316.351 422.485 319.405 422.483L388.734 422.244L404.712 422.136C406.532 422.111 409.206 422.408 410.854 421.651Z"/>
	<path fill="#FEF67D" d="M469.501 428.25C470.977 428.062 471.391 427.952 472.75 428.499L472.918 429.75L469.622 433.557L420.326 480.6L409.141 491.14C407.889 492.319 406.112 494.443 404.62 495.242C403.037 496.09 293.239 495.432 280.375 495.519L278.5 495.479L277.894 494.75C278.992 492.826 283.73 490.338 285.874 489.988C289.42 489.408 293.426 489.713 297.024 489.711L315.693 489.628L386.581 489.198L397.178 489.282C398.389 489.314 400.612 489.655 401.739 489.348C402.076 489.255 403.397 487.794 403.7 487.509L411.142 480.545L445.767 448.619C453.063 441.924 460.57 433.694 469.041 428.524L469.501 428.25Z"/>
	<path fill="#31073F" d="M454.697 427.75L456.953 427.658C458.093 428.417 458.497 428.48 458.948 429.75C458.217 431.495 457.121 432.654 455.82 433.976C442.058 447.95 426.534 460.363 411.879 473.412L401.728 482.456C400.836 483.247 398.908 485.331 397.796 485.616C395.794 486.129 392.327 485.706 390.192 485.711L371.709 485.802L287.125 486.222C285.829 486.226 283.374 486.577 282.461 485.75C287.655 480.864 329.401 444.378 332.14 443.732C333.28 443.462 335.568 443.884 336.797 443.923L346.686 443.989L405.296 444.003L428.464 444C430.401 443.999 434.094 444.477 435.817 443.998C437.203 443.612 439.034 441.751 440.118 440.823C444.868 436.756 449.088 431.369 454.313 427.989L454.697 427.75Z"/>
	<path fill="#1B9B8E" d="M409.172 468.293L400.167 476.754C399.283 477.572 397.545 479.458 396.491 479.935C395.229 480.505 391.745 480.083 390.201 480.08L371.458 480.059L296.719 480.381L311.405 468.33C313.999 469.324 316.78 469.035 319.518 469.004L335.693 468.511L384.132 468.307C392.381 468.274 400.96 467.716 409.172 468.293Z"/>
	<defs>
		<linearGradient id="gradient_6" gradientUnits="userSpaceOnUse" x1="373.4325" y1="440.61313" x2="365.97244" y2="478.3681">
			<stop offset="0" stop-color="#18DFD0"/>
			<stop offset="1" stop-color="#25D2DA"/>
		</linearGradient>
	</defs>
	<path fill="url(#gradient_6)" d="M311.405 468.33L326.189 455.335C327.904 453.854 330.302 451.291 332.365 450.356C334.638 449.325 339.355 449.696 341.943 449.682L364.591 449.737L429.358 450.043L415.213 462.924C413.372 464.597 411.249 467.028 409.172 468.293C400.96 467.716 392.381 468.274 384.132 468.307L335.693 468.511L319.518 469.004C316.78 469.035 313.999 469.324 311.405 468.33Z"/>
</svg>
