<?xml version="1.0" encoding="utf-8" ?>
<svg xmlns="http://www.w3.org/2000/svg" xmlns:xlink="http://www.w3.org/1999/xlink" width="1024" height="1024">
	<path fill="#300436" d="M340.228 236.676L343.054 236.594L382.042 236.997L404.556 236.844C408.628 236.816 412.95 236.525 417 236.885C418.208 236.993 419.329 237.425 420.173 238.334C423.908 242.355 422.507 253.107 422.463 258.29C425.07 261.022 428.241 263.167 431.574 264.918C434.115 266.252 439.12 267.318 440.788 269.612C442.806 272.387 441.784 279.22 441.744 282.617L441.629 304.073L507.437 304.021L520.895 304.062C521.703 304.079 523.767 303.869 524.469 304.15C526.614 305.009 529.424 308.351 531.084 309.975L544.68 323.14L551.126 322.352C551.183 322.351 552.063 322.421 552.226 322.525C554.965 324.27 558.075 328.357 560.469 330.683L593.861 363.649C595.061 364.836 598.754 369.111 600.059 369.506C601.843 370.047 606.066 369.48 608.05 369.471L637.275 369.37L776.83 369.111L781.75 363.082C782.376 362.461 782.856 362.166 783.75 362.098C786.667 361.873 789.811 362.3 792.75 362.327L813.003 362.294L884.95 362.079C891.497 353.525 894.721 341.981 902.439 334.449C903.241 333.666 904.744 332.137 905.742 331.68C907.634 330.814 913.192 331.497 915.407 331.512L947.384 331.875L946.922 446.537C953.215 446.505 961.676 445.012 966.877 449.249C969.086 451.048 970.378 453.684 970.544 456.511C971.123 466.428 970.507 476.754 970.509 486.723L970.493 501.515C970.486 504.029 970.706 506.752 970.307 509.223C969.933 511.539 968.964 513.373 967.395 515.113C963.749 519.152 958.486 518.661 953.518 518.874L953.817 568.429C953.853 571.812 954.783 583.721 953.56 585.996L952.988 586.75C949.589 591.403 945.566 595.429 941.506 599.505C939.829 601.188 936.124 605.478 933.846 606.163C932.302 606.627 930.185 606.405 928.564 606.409L918.21 606.433L875.799 606.49C875.377 610.494 874.496 614.336 872.619 617.921C870.132 622.671 865.102 627.349 859.922 628.853C855.345 630.181 849.858 629.888 845.112 629.912L823.747 629.98L755.209 630.019L710.299 629.854C704.617 629.793 697.326 630.532 691.866 629.185C680.461 626.372 675.519 616.846 665.912 611.593C664.328 610.727 655.81 606.131 654.414 606.599C652.872 607.115 650.03 610.707 648.714 612.013L629.337 631.262L536.735 723.042L505.336 754.022C499.007 760.287 492.815 767.004 486.088 772.833C483.578 775.008 480.478 777.604 477.192 778.4C473.024 779.411 465.403 779.309 461.779 776.9C457.782 774.243 454.253 770.274 450.811 766.943L434.645 751.552L403.958 722.315C403.381 719.746 407.666 707.234 408.591 703.765L421.811 653.264C414.182 656.731 407.011 661.47 399.944 665.95C397.281 667.638 394.013 670.354 391.124 671.456C390.471 671.706 388.359 671.422 387.597 671.414L374.899 671.365L333.604 671.242C325.556 671.165 317.096 670.408 309.088 671.252C294.87 672.75 280.512 676.739 267.25 682.017C261.943 684.129 254.153 686.872 249.749 690.506C247.734 692.169 229.612 736.412 226.281 744.079C226.82 744.734 226.516 744.483 227.329 744.93C229.808 746.294 231.966 747.802 233.825 749.971C237.123 753.819 237.876 757.857 237.49 762.75C237.122 767.414 233.771 771.982 230.271 774.927C228.41 776.493 226.281 777.382 223.885 777.747C220.031 778.334 215.595 777.957 211.681 777.961L187.992 777.99L160.613 778.089C152.575 778.207 144.584 778.578 136.558 777.914C133.552 775.643 131.058 772.141 128.743 769.193L117.933 755.511L84.3064 713.246L66.5603 691.159C63.5858 687.452 59.9923 683.612 57.6182 679.507C56.3745 677.356 55.5018 674.51 56.2463 672.041C57.527 667.795 69.7446 653.296 73.7014 651.37C75.916 650.292 78.6406 651.154 80.8436 651.855L81.5748 652.091C84.2232 650.234 86.726 646.041 88.8152 643.456L109.496 617.5L191.125 515.664L183.394 502.708L148.157 502.583L134.176 502.639C131.958 502.693 129.407 502.548 127.3 503.255C124.951 507.233 122.248 511.199 118.02 513.361C116.174 514.306 114.459 514.82 112.405 515.009C103.665 515.81 94.3356 515.009 85.5217 514.979L70.4755 515.109C67.1501 515.153 63.4453 515.415 60.25 514.348C54.7127 512.501 49.9792 507.788 47.4143 502.628C46.2869 500.36 45.5515 498.021 45.355 495.489C44.8759 489.317 45.2852 483.009 45.3499 476.822L45.4073 450.615L45.4816 413.675C45.4975 407.556 45.2007 401.234 45.5696 395.137C45.6726 393.436 46.1247 391.657 46.6971 390.058C48.7646 384.282 53.2023 379.707 58.8378 377.328C60.331 376.698 61.9338 376.2 63.5568 376.076C71.0313 375.506 78.8773 375.979 86.3853 375.995L103.131 376.001C107.364 376.018 111.508 375.779 115.5 377.481C121.855 380.19 124.845 387.698 127.159 393.709L175.866 393.52C179.006 388.743 183.129 384.273 186.776 379.856L200.67 363.09C205.793 362.17 212.495 362.988 217.783 363.04C218.305 361.573 218.058 359.705 218.037 358.141C218.023 357.139 218.275 354.917 217.984 354.101C217.656 353.179 216.348 352.089 215.649 351.348C211.631 347.094 208.661 344.89 208.559 338.692C208.513 335.911 207.825 330.181 209.165 327.75C209.487 327.166 210.471 326.402 210.962 325.895C213.544 325.146 214.395 326.384 216.255 327.964C216.634 328.287 216.896 328.862 217.388 328.937C217.613 328.971 217.756 328.668 217.938 328.531C224.646 323.47 230.579 316.119 236.672 310.25C238.041 308.932 240.103 306.504 241.704 305.682C242.781 305.128 245.55 305.433 246.833 305.44L261.378 305.496L333.387 305.568C332.245 288.414 332.675 270.554 332.926 253.358C332.972 250.209 332.415 241.238 334.341 238.877C335.616 237.314 338.398 236.993 340.228 236.676ZM309.824 582.163L307.052 582.616C304.535 585.769 303.052 589.899 301.192 593.484C296.77 602.008 287.666 614.777 288.928 624.783C289.666 630.636 292.655 635.221 297.35 638.75C300.331 640.991 303.607 642.063 307.25 642.612L308.077 642.744C314.031 643.614 320.622 643.078 326.65 643.07L362.44 643.009L377.819 643.01C379.906 643.007 382.572 643.346 384.566 642.951C386.954 642.478 391.265 638.685 393.536 637.32L418.037 623.001L418.003 604.25L418.006 582.386L351.196 582.518C350.822 587.849 350.414 592.796 351.43 598.089C352.256 602.386 353.911 606.702 355.836 610.62C357.451 613.909 360.742 618.498 361.142 622.14C361.33 623.857 360.595 625.718 359.634 627.108C358.021 629.442 355.493 631.094 352.663 631.425C349.835 631.755 347.158 630.449 345.033 628.662C339.362 623.894 335.933 615.408 332.667 608.872L323.081 589.854C322.175 588.065 320.739 584.08 319.451 582.807C318.606 581.972 311.255 582.103 309.824 582.163ZM618.155 566.937L617.263 566.933L615.193 567.25C615.208 569.003 616.696 570.679 617.65 572.152L625.045 583.564C625.35 584.073 625.786 584.441 625.5 585.078C625.149 585.86 623.593 587.217 622.978 587.901L615.343 596.064L608.673 602.486L608.428 603.128L566.392 644.659L507.273 702.468C499.438 710.172 492.329 718.784 484.048 726.006C481.07 728.604 478.481 730.583 474.726 731.913C472.305 730.677 469.901 729.396 467.703 727.787C465.619 726.261 454.556 716.391 453.01 716.331L452.885 717.299L453.362 717.556C454.195 718.064 454.766 718.699 455.44 719.393L455.506 719.998L454.745 720.75C453.915 720.079 453.108 719.594 452.25 719L450.899 717.764L450.874 718.757C451.904 719.662 456.811 723.251 457.09 724.104C458.184 727.081 470.172 737.568 473.282 739.365L473.965 739.75C475.656 740.718 477.116 741.642 479.132 741.578C481.966 741.489 484.396 739.82 486.496 738.057C491.295 734.028 495.595 729.005 500.036 724.564L526.897 697.982L580.952 644.28L614.602 610.598L615.102 610.589L622.676 619.019L671.308 566.407L674.881 559.98L724.994 560.534L800.46 560.017L831.862 560.001C837.45 559.998 844.161 560.686 849.582 559.413C849.139 557.301 849.091 555.118 848.951 552.97L812.791 553.012L741.149 553.034L699.218 553.128C692.108 553.153 684.561 553.678 677.5 552.982C674.479 550.622 673.472 547.742 672.873 544.053L643.1 543.931C642.248 552.077 639.284 560.898 633.106 566.551L632.509 566.456C628.911 565.931 621.263 565.098 618.155 566.937ZM849.582 559.413C844.161 560.686 837.45 559.998 831.862 560.001L800.46 560.017L724.994 560.534L674.881 559.98L671.308 566.407L674.031 566.529C674.078 568.588 673.892 570.946 674.375 572.939L686.13 573.567C688.639 573.591 691.79 573.283 694.219 573.863L694.018 574.304L693.959 587.381L694.007 589.525L702.134 590.065L702.108 607.914C702.106 610.48 701.7 614.01 702.425 616.443L702.546 616.591C702.59 616.634 703.494 617.444 703.5 617.446C704.509 617.797 707.254 617.458 708.41 617.462L722.972 617.51L723.097 588.215C725.987 587.232 728.507 586.756 731.468 587.661L731.677 587.056L752.969 587.104L752.934 573.405L753.15 573.025C756.163 572.866 759.004 573.037 762.006 572.518C761.834 577.339 761.472 582.228 761.982 587.035L782.999 587.098L783.063 587.48L791.585 587.53C791.406 585.134 790.777 580.128 791.857 578.127L792.029 587.054L812.533 587.01C815.042 587.054 819.106 586.626 821.395 587.521L821.572 586.741L823.177 586.926C827.759 587.407 836.896 587.935 840.499 584.979C842.657 584.491 844.583 584.596 846.766 584.75C847.381 585.888 847.763 586.903 848.137 588.13C853.187 590.833 857.644 592.834 863.506 593.047L863.485 577.323C863.481 574.921 863.825 571.702 862.812 569.526L862.543 569L861.551 567.163C858.647 562.824 854.625 560.468 849.582 559.413Z"/>
	<path fill="#3D426F" d="M232.121 356.75L232.694 356.706L233.25 357.426C233.844 358.657 233.975 361.591 233.75 362.89L231.75 363.199L229.677 362.847C229.831 360.793 231.233 358.617 232.121 356.75Z"/>
	<path fill="#B63A11" d="M192.495 532.134L197.975 524.003L205.651 523.839L206.676 524.271C204.922 526.961 202.852 529.522 201.389 532.38L200.921 532.216C198.158 531.839 195.279 532.073 192.495 532.134Z"/>
	<path fill="#F9C374" d="M192.495 532.134C195.279 532.073 198.158 531.839 200.921 532.216C198.404 535.208 194.544 538.951 192.945 542.479L192.089 543.093L183.53 543.029L192.495 532.134Z"/>
	<path fill="#3D3060" d="M230.219 706.75C230.651 709.206 226.816 716.518 225.724 719.044C224.145 722.696 216.201 742.512 213.891 743.897C213.386 744.2 212.797 744.334 212.25 744.552L211.641 744.076C211.941 741.249 214.437 737.303 215.678 734.667C219.933 725.632 223.968 714.468 230.219 706.75Z"/>
	<path fill="#30517F" d="M305.611 353.418C305.971 355.013 305.204 357.615 304.25 358.951C302.329 361.64 300.361 362.774 297.138 363.186C295.57 363.386 294.161 363.276 292.907 362.23C290.574 360.282 289.282 357.014 289.017 354.044C290.318 354.626 291.926 354.404 293.325 354.406L304.736 354.4L305.611 353.418Z"/>
	<path fill="#30517F" d="M238.62 354.414C244.121 355.602 250.88 354.857 256.493 354.498C256.444 355.795 256.232 356.738 255.721 357.943C254.869 359.953 252.411 362.329 250.279 362.955C248.1 363.595 245.221 363.476 243.262 362.221C240.545 360.48 239.373 357.399 238.62 354.414Z"/>
	<path fill="#78C3D2" d="M289.017 354.044C288.821 352.134 289.331 350.704 290.43 349.124C291.589 347.46 293.6 345.624 295.695 345.333C297.802 345.04 299.884 345.381 301.618 346.632C304.064 348.398 305.097 350.507 305.611 353.418L304.736 354.4L293.325 354.406C291.926 354.404 290.318 354.626 289.017 354.044Z"/>
	<path fill="#1F164F" d="M753.15 573.025C756.163 572.866 759.004 573.037 762.006 572.518C761.834 577.339 761.472 582.228 761.982 587.035C761.95 591.295 762.341 596.054 761.573 600.233L761.438 587.022C758.627 587.014 755.845 586.962 753.056 587.375L752.969 587.104L752.934 573.405L753.15 573.025Z"/>
	<path fill="#78C3D2" d="M238.62 354.414C239.31 351.169 240.151 348.071 243.155 346.171C243.808 345.758 244.52 345.625 245.25 345.431L246.23 345.156C248.227 344.655 250.744 345.362 252.424 346.476C254.915 348.128 255.987 350.959 256.431 353.815L256.493 354.498C250.88 354.857 244.121 355.602 238.62 354.414Z"/>
	<path fill="#3D3060" d="M427.279 594.068L436.654 594.166C436.168 599.658 434.618 604.43 433.203 609.712C431.849 614.77 430.571 620.394 428.075 625.014L427.048 625.561L426.889 624.013C426.27 619.166 426.465 614.269 426.483 609.383C426.502 604.298 426.313 599.081 427.279 594.068Z"/>
	<path fill="#B9FEFE" d="M946.047 465.313L946.305 456.847C951.105 455.739 955.843 455.792 960.659 456.75C962.83 459.241 962.032 466.202 961.863 469.426L951.199 469.484C949.613 469.488 947.806 469.833 946.444 469L946.047 465.313Z"/>
	<path fill="#3D3060" d="M509.866 536.157L549.686 535.716L563.361 535.549C565.991 535.52 568.914 535.25 571.5 535.668C572.793 535.877 573.786 536.415 574.785 537.25C574.944 539.572 575.095 541.827 574.923 544.156L574.525 539.75C574.267 539.472 574.112 539.031 573.75 538.916C573.172 538.732 571.456 538.938 570.779 538.943L562.694 538.967L526.232 538.957C519.474 538.935 512.409 539.296 505.707 538.426C507.054 537.532 508.404 536.842 509.866 536.157Z"/>
	<path fill="#EC4D0D" d="M514.486 357.075C513.209 356.809 493.921 336.49 491.083 333.488L505.231 333.556L501.75 334.063C502.294 336.36 507.713 340.48 509.6 342.313C511.927 344.574 514.022 346.934 515.999 349.505L518.901 357.865L518.772 359.547L518.755 360L518.391 360.034C517.444 359.034 516.575 358.076 515.318 357.462L514.486 357.075Z"/>
	<path fill="#3D426F" d="M933.977 551.871C936.647 551.767 939.096 551.74 941.75 552.148C942.909 554.528 942.491 558.066 942.449 560.691L942.085 577.926L934.021 577.964L933.977 551.871Z"/>
	<path fill="#78C3D2" d="M68.0588 673.957C70.0731 669.417 74.3364 664.452 77.5639 660.627C78.7637 660.532 80.0044 660.387 81.1959 660.606C85.1326 661.33 89.9984 669.804 92.3714 673.005C91.4623 673.664 91.5614 673.801 90.3906 673.788C89.2349 673.776 88.5423 674.173 87.5247 674.639C86.8049 674.969 86.2372 674.883 85.5145 675.055L84.3265 675.555C78.8481 674.346 73.6328 674.171 68.0588 673.957Z"/>
	<path fill="#FAE26B" d="M866.595 382.719L866.508 375.499L883.321 375.493C886.675 379.039 889.192 382.023 890.096 386.963L873.964 386.962C872.013 386.957 869.273 387.308 867.5 386.515C866.896 385.338 866.796 384.011 866.595 382.719Z"/>
	<path fill="#450A33" d="M330.009 582.499L343.421 582.532C343.233 589.961 342.415 599.092 344.542 606.25C346.092 611.466 351.382 617.181 350.25 622.63L349.304 622.778C346.496 619.021 344.731 613.966 342.737 609.706L330.009 582.499Z"/>
	<path fill="#3D3060" d="M474.388 537.896L505.01 538.538L497.804 543.902C496.275 544.98 494.501 545.958 493.365 547.469L465.342 548.007L474.388 537.896Z"/>
	<path fill="#F9C374" d="M828.628 381.209L828.463 374.235C836.274 373.16 843.297 373.983 851.075 374.069L851.241 387.532C844.2 386.821 836.392 387.514 829.268 387.524C829.229 385.511 829.187 383.606 828.731 381.632L828.628 381.209Z"/>
	<path fill="#78C3D2" d="M125.996 412.101L125.954 403.719L168.064 404.031L161.412 412.154L125.996 412.101Z"/>
	<path fill="#3D3060" d="M914.912 576.05L915.003 551.98L927.997 552.025L927.59 577.972C923.583 578.122 919.606 578.359 915.616 577.825C915.149 577.121 915.074 576.93 914.912 576.05Z"/>
	<path fill="#3D3060" d="M874.564 561.199C875.146 558.365 874.919 554.909 875.001 551.989L887.978 551.994L887.994 577.996L874.983 578.025C874.179 572.501 874.514 566.771 874.564 561.199Z"/>
	<path fill="#3D426F" d="M946.047 465.313L946.444 469C947.806 469.833 949.613 469.488 951.199 469.484L961.863 469.426L960.98 493.017L946.436 493.029L946.047 465.313Z"/>
	<path fill="#F06005" d="M514.486 357.075L515.318 357.462C516.575 358.076 517.444 359.034 518.391 360.034L518.755 360L518.772 359.547L518.901 357.865C519.46 358.922 519.923 360.659 521.25 360.879L564.966 360.277L573.483 368.571L525.33 368.5L514.486 357.075Z"/>
	<path fill="#F06005" d="M583.99 533.073L587.501 532.923L587.445 543.621C587.441 545.153 587.173 547.232 587.462 548.72C587.666 549.77 588.993 551.202 589.75 551.918C590.758 552.871 592.385 553.29 593.729 553.433C599.281 554.023 605.326 553.502 610.936 553.518C616.049 553.532 621.967 554.125 627 553.463C628.131 553.315 628.793 552.504 629.341 551.583C631.223 548.42 630.362 543.457 630.526 539.836C630.627 537.614 631.11 535.291 631.04 533.082L632.441 533.5L632.929 537.164C632.956 541.173 634.152 555.129 631.752 557.641C630.817 558.619 629.526 558.88 628.202 558.907L600.804 558.919C596.832 558.916 592.428 559.398 588.5 558.938C587.103 558.775 586.175 558.025 585.206 557.066C584.44 556.308 584.166 555.879 584.024 554.75C583.743 552.524 583.988 549.948 583.984 547.69L583.99 533.073Z"/>
	<path fill="#3D3060" d="M848.137 588.13C853.187 590.833 857.644 592.834 863.506 593.047L863.62 601.308C863.595 606.706 863.66 612.052 859.43 616.033C856.272 619.005 852.039 618.165 848.031 617.993L848.137 588.13Z"/>
	<path fill="#FBAA7D" d="M828.628 381.209L828.731 381.632C829.187 383.606 829.229 385.511 829.268 387.524C836.392 387.514 844.2 386.821 851.241 387.532L851.427 400.691C844.221 403.559 836.114 407.619 828.561 409.32L828.628 381.209Z"/>
	<path fill="#F28535" d="M796.796 407.92L810.57 402.433C812.355 401.729 814.481 401.386 815.864 400.008L815.827 418.236L815.293 423.792C812.065 424.135 808.343 423.652 805.147 423.091C803.916 422.875 801.404 422.09 800.247 422.333C797.671 422.875 795.066 426.563 793.086 428.118L793.027 409.12C794.406 409.07 795.554 408.463 796.796 407.92Z"/>
	<path fill="#3D3060" d="M891.995 551.854L909.046 551.986L909.001 577.998L892.019 578.023L891.995 551.854Z"/>
	<path fill="#FBAA7D" d="M866.595 382.719C866.796 384.011 866.896 385.338 867.5 386.515C869.273 387.308 872.013 386.957 873.964 386.962L890.096 386.963L889.982 399.668C886.048 401.292 882.222 403.004 878.571 405.206C874.605 407.599 871.142 411.491 866.582 412.665L866.595 382.719Z"/>
	<path fill="#F28535" d="M889.982 399.668L889.923 413.741L889.414 414.256C885.196 417.262 881.485 420.752 876.892 423.216C874.8 424.271 872.88 425.331 870.904 426.586L870.632 426.707L870.965 440.091C871.026 442.99 871.267 445.966 870.263 448.732C868.915 448.633 867.942 448.586 866.75 447.86C865.736 444.487 866.571 438.893 866.623 435.276L866.582 412.665C871.142 411.491 874.605 407.599 878.571 405.206C882.222 403.004 886.048 401.292 889.982 399.668Z"/>
	<path fill="#FEA402" d="M866.623 435.276C867.265 433.261 867.024 430.56 867.053 428.45L867.245 413.5C868.124 413.174 868.352 413.219 869.25 413.338C870.247 417.541 870.05 422.358 870.632 426.707L870.965 440.091C871.026 442.99 871.267 445.966 870.263 448.732C868.915 448.633 867.942 448.586 866.75 447.86C865.736 444.487 866.571 438.893 866.623 435.276Z"/>
	<path fill="#F28535" d="M515.999 349.505C520.298 349.496 553.825 348.595 555.238 349.907L564.966 360.277L521.25 360.879C519.923 360.659 519.46 358.922 518.901 357.865L515.999 349.505Z"/>
	<path fill="#EC4D0D" d="M832.404 447.615L831.999 426.822C833.163 425.586 834.327 424.266 835.7 423.259C836.127 422.945 837.141 422.057 837.644 421.909C838.281 421.721 840.056 422.142 840.82 422.229L850.988 423.524C850.975 420.61 850.558 416.937 851.151 414.122L851.298 413.601L851.259 435.605C851.217 439.656 850.865 443.931 851.307 447.951L832.404 447.615Z"/>
	<path fill="#F28535" d="M828.561 409.32C836.114 407.619 844.221 403.559 851.427 400.691L851.298 413.601L851.151 414.122C850.558 416.937 850.975 420.61 850.988 423.524L840.82 422.229C840.056 422.142 838.281 421.721 837.644 421.909C837.141 422.057 836.127 422.945 835.7 423.259C834.327 424.266 833.163 425.586 831.999 426.822L832.404 447.615L828.916 447.675L828.561 409.32Z"/>
	<path fill="#3D3060" d="M126.078 433.931L126.466 446.045L160.79 445.542L167.689 458.977L126.256 459.015L126.078 433.931Z"/>
	<path fill="#78C3D2" d="M56.0939 395.579C57.5369 392.043 59.4519 388.789 63.2224 387.36C68.5576 385.337 76.6897 386.72 82.4623 386.74C91.7804 386.771 102.137 385.739 111.306 387.271C113.894 389.27 116.036 391.056 116.518 394.501L116.671 396.017L72.4854 396.052L62.3318 396.042C60.2599 396.039 58.0617 396.289 56.0939 395.579Z"/>
	<path fill="#EC4D0D" d="M889.414 414.256L889.923 413.741L889.952 448.256L877.325 448.272C875.038 448.283 872.479 448.106 870.263 448.732C871.267 445.966 871.026 442.99 870.965 440.091L870.632 426.707L870.904 426.586C872.88 425.331 874.8 424.271 876.892 423.216C881.485 420.752 885.196 417.262 889.414 414.256Z"/>
	<path fill="#F06005" d="M876.892 423.216C881.485 420.752 885.196 417.262 889.414 414.256L889.499 429.048C885.416 427.534 880.224 426.008 876.892 423.216Z"/>
	<path fill="#EC4D0D" d="M793.086 428.118C795.066 426.563 797.671 422.875 800.247 422.333C801.404 422.09 803.916 422.875 805.147 423.091C808.343 423.652 812.065 424.135 815.293 423.792L815.827 418.236L815.869 437.688C815.884 441.024 816.231 444.73 815.798 448.026L800.729 447.69C798.135 447.626 795.176 447.857 792.697 447.085C793.57 441.062 793.041 434.235 793.086 428.118Z"/>
	<path fill="#74A8C8" d="M425.464 320.138C425.473 318.427 425.119 316.052 426.055 314.654L430.776 314.271L494.647 313.76L512.779 313.754C514.452 313.765 517.218 313.413 518.796 313.801C520.708 314.272 524.35 318.339 525.949 319.788L425.464 320.138Z"/>
	<path fill="#3D426F" d="M821.572 586.741L823.177 586.926C827.759 587.407 836.896 587.935 840.499 584.979L840.092 617.997L821.042 618.024L821.395 587.521L821.572 586.741Z"/>
	<path fill="#FEA402" d="M901.293 372.794L893.083 364.493L906.991 341.957C916.254 340.971 926.947 341.338 936.25 341.966C937.49 343.186 937.077 345.108 937.099 346.82L936.984 355.06L912.149 353.987L901.293 372.794Z"/>
	<path fill="#3D426F" d="M505.707 538.426C512.409 539.296 519.474 538.935 526.232 538.957L562.694 538.967L570.779 538.943C571.456 538.938 573.172 538.732 573.75 538.916C574.112 539.031 574.267 539.472 574.525 539.75L574.923 544.156L574.872 547C572.845 548.274 502.045 547.67 493.365 547.469C494.501 545.958 496.275 544.98 497.804 543.902L505.01 538.538L505.707 538.426Z"/>
	<defs>
		<linearGradient id="gradient_0" gradientUnits="userSpaceOnUse" x1="608.47461" y1="552.8938" x2="609.03741" y2="532.92334">
			<stop offset="0" stop-color="#FFCA36"/>
			<stop offset="1" stop-color="#FFE761"/>
		</linearGradient>
	</defs>
	<path fill="url(#gradient_0)" d="M624.576 538.53C624.832 536.774 624.25 534.317 625.5 533.044L631.04 533.082C631.11 535.291 630.627 537.614 630.526 539.836C630.362 543.457 631.223 548.42 629.341 551.583C628.793 552.504 628.131 553.315 627 553.463C621.967 554.125 616.049 553.532 610.936 553.518C605.326 553.502 599.281 554.023 593.729 553.433C592.385 553.29 590.758 552.871 589.75 551.918C588.993 551.202 587.666 549.77 587.462 548.72C587.173 547.232 587.441 545.153 587.445 543.621L587.501 532.923C588.489 532.977 592.108 533.507 592.785 533.121L592.995 539.962L624.549 539.488L624.576 538.53Z"/>
	<path fill="#30517F" d="M592.995 539.962L624.549 539.488L624.514 548.494C620.417 548.505 595.013 549.28 593.074 548.286L592.995 539.962Z"/>
	<path fill="#30517F" d="M761.982 587.035L782.999 587.098L783.063 587.48L783.001 617.766L761.637 618.029L761.573 600.233C762.341 596.054 761.95 591.295 761.982 587.035Z"/>
	<path fill="#30517F" d="M791.585 587.53C791.406 585.134 790.777 580.128 791.857 578.127L792.029 587.054L812.533 587.01L812.57 618L791.505 618.023L791.585 587.53Z"/>
	<path fill="#30517F" d="M731.677 587.056L752.969 587.104L753.056 587.375L753.042 617.514L731.447 617.783L731.468 587.661L731.677 587.056Z"/>
	<path fill="#F9C374" d="M793.027 409.12L792.961 388.79C792.951 384.561 792.375 379.73 793.688 375.682C799.667 373.433 809.169 374.823 815.534 375.028L815.615 387.189L815.864 400.008C814.481 401.386 812.355 401.729 810.57 402.433L796.796 407.92C795.554 408.463 794.406 409.07 793.027 409.12Z"/>
	<path fill="#FBAA7D" d="M815.615 387.189L815.864 400.008C814.481 401.386 812.355 401.729 810.57 402.433L796.796 407.92L796.775 387.198L815.615 387.189Z"/>
	<path fill="#30517F" d="M674.375 572.939L686.13 573.567C688.639 573.591 691.79 573.283 694.219 573.863L694.018 574.304L693.959 587.381L694.007 589.525L693.645 618.362L677.476 605.666C677.062 605.284 675.165 603.795 675.011 603.343C674.467 601.739 674.998 597.311 674.979 595.395L674.375 572.939Z"/>
	<path fill="#03BBA5" d="M693.959 587.381C692.287 587.339 690.512 587.38 689.14 586.395C688.73 583.907 687.826 576.184 689.006 574.127C690.763 573.972 692.276 574.03 694.018 574.304L693.959 587.381Z"/>
	<path fill="#74A8C8" d="M238.544 320.337C240.109 318.923 243.871 314.775 245.661 314.252C246.921 313.885 249.718 314.418 251.187 314.455L265.263 314.507L352.324 314.507L352.493 320.992L279.522 320.993L240.526 321.073C239.732 321.044 239.19 320.764 238.544 320.337Z"/>
	<path fill="#30517F" d="M459.436 576.588C459.096 588.509 454.503 601.776 451.388 613.288L442.237 647.949L428.458 699C426.321 706.499 424.56 714.852 421.293 721.917L418.025 718.245L443.776 623.179L450.97 597C452.428 591.634 453.684 585.84 455.857 580.719C456.621 578.918 457.964 577.814 459.436 576.588Z"/>
	<path fill="#B63A11" d="M367.551 334.005C367.259 328.07 365.975 319.438 369.202 314.25C369.908 313.95 370.482 313.699 371.25 313.59C379.552 312.415 389.024 313.309 397.415 313.409C400.063 313.441 403.981 312.965 406.5 313.527C406.843 313.604 407.843 314.565 408.181 314.827C409.219 316.926 408.978 319.205 408.994 321.494L408.926 333.33L367.551 334.005Z"/>
	<path fill="#FAE26B" d="M505.231 333.556L537.065 333.393C539.031 333.384 544.042 332.732 545.739 333.355C546.005 333.453 547.117 334.602 547.391 334.854L553.482 340.618L578.89 365.113L582.251 368.614L573.483 368.571L564.966 360.277L555.238 349.907C553.825 348.595 520.298 349.496 515.999 349.505C514.022 346.934 511.927 344.574 509.6 342.313C507.713 340.48 502.294 336.36 501.75 334.063L505.231 333.556Z"/>
	<path fill="#74A8C8" d="M92.3714 673.005L134.758 729.564L145.333 743.631C147.859 746.988 150.587 750.891 154.071 753.299L223.525 753.5L226.922 757.421C225.888 758.103 225.196 757.999 224 758.011L187.295 757.603L160.217 757.528C157.641 757.514 152.164 758.027 149.853 756.805C147.691 755.661 145.184 752.638 143.619 750.732L131.59 734.637L105.035 700.756C98.3092 692.142 92.121 683.258 84.3265 675.555L85.5145 675.055C86.2372 674.883 86.8049 674.969 87.5247 674.639C88.5423 674.173 89.2349 673.776 90.3906 673.788C91.5614 673.801 91.4623 673.664 92.3714 673.005Z"/>
	<path fill="#30517F" d="M125.996 412.101L161.412 412.154C157.296 417.873 157.819 422.097 157.667 428.894C157.594 432.191 157.371 435.739 157.951 438.994C158.369 441.336 159.671 443.479 160.79 445.542L126.466 446.045L126.078 433.931L125.996 412.101Z"/>
	<path fill="#4D80A1" d="M56.0939 395.579C58.0617 396.289 60.2599 396.039 62.3318 396.042L72.4854 396.052L116.671 396.017L116.508 416.032L55.9986 415.412L56.0939 395.579Z"/>
	<path fill="#3D3060" d="M297.426 654.407C289.289 650.477 282.762 646.335 278.187 638.221C274.665 631.976 273.622 624.141 275.481 617.25C278.659 605.466 284.729 593.639 291.448 583.5C293.15 580.931 295.32 578.943 297.541 576.834L283.408 606.517C280.162 614.601 278.661 624.023 282.34 632.257C285.559 639.459 292.551 645.323 299.965 647.894C303.238 649.03 306.659 649.776 310.124 649.976C323.054 650.723 336.403 649.997 349.39 649.997L372.546 650.169C376.355 650.214 383.247 651.038 386.517 649.298L387 649.019L422.412 628.268C421.409 632.855 421.123 635.201 417.008 637.858C409.875 642.466 402.336 646.069 395.052 650.353C392.475 651.869 389.016 655.031 386.345 655.927C385.34 656.264 382.84 655.969 381.716 655.981L368.282 656.035L336.121 656.09C331.246 656.212 326.373 657.07 321.5 656.957C313.462 656.771 305.337 655.763 297.426 654.407Z"/>
	<path fill="#3D426F" d="M467.602 567.913L475.163 560.092C476.071 559.19 477.96 557.226 479.152 556.769C479.984 556.45 482.611 556.782 483.574 556.785L497.32 556.827L577.1 557C578.089 560.024 579.005 562.795 580.704 565.519L580.99 565.972C580.281 567.202 580.17 567.469 578.682 567.822C576.663 568.302 574.217 568.117 572.145 568.153L559.316 568.295L502.257 568.284L479.535 568.19C475.714 568.17 471.364 568.52 467.602 567.913Z"/>
	<path fill="#FAE26B" d="M343.98 264.413L343.909 246.996L412.18 246.998L412.235 257.374C412.25 258.793 412.072 261.271 412.581 262.577C413.042 263.762 414.43 265.214 415.341 266.13C419.727 270.541 425.134 273.139 430.552 276.055C426.737 277.176 419.496 272.183 416.525 269.674C414.699 268.132 412.402 265.35 410.026 264.857L409.39 264.75C401.726 263.331 393.625 264.378 385.873 264.433L343.98 264.413Z"/>
	<path fill="#942718" d="M672.873 544.053L848.812 543.006L848.951 552.97L812.791 553.012L741.149 553.034L699.218 553.128C692.108 553.153 684.561 553.678 677.5 552.982C674.479 550.622 673.472 547.742 672.873 544.053Z"/>
	<path fill="#3D3060" d="M68.0588 673.957C73.6328 674.171 78.8481 674.346 84.3265 675.555C92.121 683.258 98.3092 692.142 105.035 700.756L131.59 734.637L143.619 750.732C145.184 752.638 147.691 755.661 149.853 756.805C152.164 758.027 157.641 757.514 160.217 757.528L187.295 757.603L224 758.011C225.196 757.999 225.888 758.103 226.922 757.421C227.474 758.435 227.87 759.27 227.94 760.443C228.061 762.431 227.453 763.737 226.108 765.166C225.604 765.701 224.162 767.417 223.567 767.662C222.897 767.937 220.394 767.707 219.569 767.715L206.799 767.719L142.179 768.034L80.7715 691.198L71.3337 679.424C70.5546 678.434 68.6762 676.568 68.2583 675.495C68.0708 675.013 68.1253 674.47 68.0588 673.957Z"/>
	<path fill="#EC4D0D" d="M937.099 346.82L936.995 426.478L903.899 426.199L903.986 389.832C903.994 386.062 904.75 380.365 903.95 376.802C903.732 375.828 901.915 373.731 901.293 372.794L912.149 353.987L936.984 355.06L937.099 346.82Z"/>
	<path fill="#F06005" d="M343.98 264.413L385.873 264.433C393.625 264.378 401.726 263.331 409.39 264.75L410.026 264.857C412.402 265.35 414.699 268.132 416.525 269.674C419.496 272.183 426.737 277.176 430.552 276.055L431.75 277.061C433.157 284.333 432.265 292.464 431.989 299.829L343.988 299.505L343.98 264.413Z"/>
	<path fill="#3D426F" d="M55.9986 415.412L116.508 416.032L116.496 476.462L56.0017 477.052L55.9986 415.412Z"/>
	<path fill="#3D426F" d="M849.582 559.413C854.625 560.468 858.647 562.824 861.551 567.163L862.543 569L862.812 569.526C863.825 571.702 863.481 574.921 863.485 577.323L863.506 593.047C857.644 592.834 853.187 590.833 848.137 588.13C847.763 586.903 847.381 585.888 846.766 584.75C844.583 584.596 842.657 584.491 840.499 584.979C836.896 587.935 827.759 587.407 823.177 586.926L821.572 586.741L821.395 587.521C819.106 586.626 815.042 587.054 812.533 587.01L792.029 587.054L791.857 578.127C790.777 580.128 791.406 585.134 791.585 587.53L783.063 587.48L782.999 587.098L761.982 587.035C761.472 582.228 761.834 577.339 762.006 572.518C759.004 573.037 756.163 572.866 753.15 573.025L752.934 573.405L752.969 587.104L731.677 587.056L731.468 587.661C728.507 586.756 725.987 587.232 723.097 588.215L722.972 617.51L708.41 617.462C707.254 617.458 704.509 617.797 703.5 617.446C703.494 617.444 702.59 616.634 702.546 616.591L702.425 616.443C701.7 614.01 702.106 610.48 702.108 607.914L702.134 590.065L694.007 589.525L693.959 587.381L694.018 574.304L694.219 573.863C691.79 573.283 688.639 573.591 686.13 573.567L674.375 572.939C673.892 570.946 674.078 568.588 674.031 566.529L671.308 566.407L674.881 559.98L724.994 560.534L800.46 560.017L831.862 560.001C837.45 559.998 844.161 560.686 849.582 559.413ZM812.889 570.97L812.592 572.49L792.75 572.52C791.681 574.077 791.947 576.245 791.857 578.127L792.029 587.054L812.533 587.01C815.042 587.054 819.106 586.626 821.395 587.521L821.572 586.741L821.664 573.063C819.22 572.616 816.485 572.111 814.328 570.824L813.563 570.347L812.889 570.97ZM762.006 572.518C761.834 577.339 761.472 582.228 761.982 587.035L782.999 587.098L782.995 572.505C781.43 571.902 778.856 572.271 777.148 572.295L762.006 572.518ZM731.585 579.058L731.677 587.056L752.969 587.104L752.934 573.405C750.98 572.012 748.526 572.502 746.232 572.581L731.934 572.979L731.585 579.058ZM702.481 587.035L716.362 587.306C718.465 587.342 720.934 587.636 722.945 586.973L722.487 573.316C718.422 572.506 713.765 572.869 709.618 572.887C707.453 572.896 704.478 572.703 702.46 573.526L702.481 587.035ZM821.664 573.063L821.572 586.741L823.177 586.926C827.759 587.407 836.896 587.935 840.499 584.979C840.086 580.842 840.324 576.663 840.443 572.514C834.961 572.041 826.85 571.248 821.664 573.063Z"/>
	<path fill="#300436" d="M752.781 568.442C753.855 566.802 754.219 565.738 756.343 565.348C757.814 565.077 758.676 565.196 760.044 565.75C760.856 566.652 761.618 567.412 762.036 568.578L762.006 572.518C759.004 573.037 756.163 572.866 753.15 573.025L752.781 568.442Z"/>
	<path fill="#300436" d="M722.432 568.001C722.656 567.365 723.021 566.828 723.365 566.25C724.82 565.321 726.42 564.649 728.191 564.766C730.174 564.896 730.919 566.145 732.056 567.574C731.962 569.384 732.012 571.303 731.567 573.06L722.654 573.008L722.432 568.001Z"/>
	<path fill="#300436" d="M693.837 569.66C693.928 567.901 694.145 566.308 695.592 565.115C696.581 564.301 698.576 563.791 699.797 564.184C701.52 564.739 702 565.917 702.596 567.444C702.506 568.934 702.736 572.313 701.988 573.471L694.485 573.533L693.837 569.66Z"/>
	<path fill="#3D3060" d="M732.056 567.574C733.751 568.772 735.156 568.573 737.207 568.718C742.064 569.06 747.566 568.186 752 570.339L752.781 568.442L753.15 573.025L752.934 573.405C750.98 572.012 748.526 572.502 746.232 572.581L731.934 572.979L731.585 579.058C731.27 577.066 731.467 575.066 731.567 573.06C732.012 571.303 731.962 569.384 732.056 567.574Z"/>
	<path fill="#1F164F" d="M674.031 566.529C677.686 566.509 681.047 566.481 684.626 567.299L693.837 569.66L694.485 573.533L694.219 573.863C691.79 573.283 688.639 573.591 686.13 573.567L674.375 572.939C673.892 570.946 674.078 568.588 674.031 566.529Z"/>
	<path fill="#1F164F" d="M722.654 573.008L731.567 573.06C731.467 575.066 731.27 577.066 731.585 579.058L731.677 587.056L731.468 587.661C728.507 586.756 725.987 587.232 723.097 588.215L722.945 586.973L722.487 573.316L722.654 573.008Z"/>
	<path fill="#3D3060" d="M702.596 567.444C705.886 568.958 713.159 568.129 716.979 568.14C718.625 568.145 720.841 568.399 722.432 568.001L722.654 573.008L722.487 573.316C718.422 572.506 713.765 572.869 709.618 572.887C707.453 572.896 704.478 572.703 702.46 573.526L702.481 587.035L702.558 606.597C702.546 609.797 702.8 613.284 702.425 616.443C701.7 614.01 702.106 610.48 702.108 607.914L702.134 590.065L694.007 589.525L693.959 587.381L694.018 574.304L694.219 573.863L694.485 573.533L701.988 573.471C702.736 572.313 702.506 568.934 702.596 567.444Z"/>
	<path fill="#0FF0D5" fill-opacity="0.98823529" d="M821.664 573.063C826.85 571.248 834.961 572.041 840.443 572.514C840.324 576.663 840.086 580.842 840.499 584.979C836.896 587.935 827.759 587.407 823.177 586.926L821.572 586.741L821.664 573.063Z"/>
	<path fill="#3D3060" d="M762.036 568.578C763.657 569.19 765.3 568.949 766.999 568.885C770.611 568.749 776.828 567.581 780.097 568.934C781.689 569.593 782.912 571.074 784.066 572.301C786.81 572.401 789.524 572.589 792.25 572.189C792.99 570.252 792.976 569.754 794.75 568.566C798.789 568.455 809.009 567.226 811.966 569.5C812.25 570.184 812.25 570.559 812.889 570.97L812.592 572.49L792.75 572.52C791.681 574.077 791.947 576.245 791.857 578.127C790.777 580.128 791.406 585.134 791.585 587.53L783.063 587.48L782.999 587.098L782.995 572.505C781.43 571.902 778.856 572.271 777.148 572.295L762.006 572.518L762.036 568.578Z"/>
	<path fill="#0FF0D5" fill-opacity="0.98823529" d="M702.481 587.035L702.46 573.526C704.478 572.703 707.453 572.896 709.618 572.887C713.765 572.869 718.422 572.506 722.487 573.316L722.945 586.973C720.934 587.636 718.465 587.342 716.362 587.306L702.481 587.035Z"/>
	<path fill="#0FF0D5" fill-opacity="0.98823529" d="M731.585 579.058L731.934 572.979L746.232 572.581C748.526 572.502 750.98 572.012 752.934 573.405L752.969 587.104L731.677 587.056L731.585 579.058Z"/>
	<path fill="#0FF0D5" fill-opacity="0.98823529" d="M762.006 572.518L777.148 572.295C778.856 572.271 781.43 571.902 782.995 572.505L782.999 587.098L761.982 587.035C761.472 582.228 761.834 577.339 762.006 572.518Z"/>
	<path fill="#0FF0D5" fill-opacity="0.98823529" d="M812.889 570.97L813.563 570.347L814.328 570.824C816.485 572.111 819.22 572.616 821.664 573.063L821.572 586.741L821.395 587.521C819.106 586.626 815.042 587.054 812.533 587.01L792.029 587.054L791.857 578.127C791.947 576.245 791.681 574.077 792.75 572.52L812.592 572.49L812.889 570.97Z"/>
	<path fill="#1F164F" d="M812.889 570.97L813.563 570.347L814.328 570.824C816.485 572.111 819.22 572.616 821.664 573.063L821.572 586.741L821.395 587.521C819.106 586.626 815.042 587.054 812.533 587.01L812.592 572.49L812.889 570.97Z"/>
	<path fill="#30517F" d="M702.481 587.035L716.362 587.306C718.465 587.342 720.934 587.636 722.945 586.973L723.097 588.215L722.972 617.51L708.41 617.462C707.254 617.458 704.509 617.797 703.5 617.446C703.494 617.444 702.59 616.634 702.546 616.591L702.425 616.443C702.8 613.284 702.546 609.797 702.558 606.597L702.481 587.035Z"/>
	<defs>
		<linearGradient id="gradient_1" gradientUnits="userSpaceOnUse" x1="651.39429" y1="544.08923" x2="661.74274" y2="730.37616">
			<stop offset="0" stop-color="#350F40"/>
			<stop offset="1" stop-color="#3F2D64"/>
		</linearGradient>
	</defs>
	<path fill="url(#gradient_1)" d="M618.155 566.937C621.263 565.098 628.911 565.931 632.509 566.456L633.106 566.551C639.284 560.898 642.248 552.077 643.1 543.931L672.873 544.053C673.472 547.742 674.479 550.622 677.5 552.982C684.561 553.678 692.108 553.153 699.218 553.128L741.149 553.034L812.791 553.012L848.951 552.97C849.091 555.118 849.139 557.301 849.582 559.413C844.161 560.686 837.45 559.998 831.862 560.001L800.46 560.017L724.994 560.534L674.881 559.98L671.308 566.407L622.676 619.019L615.102 610.589L614.602 610.598L580.952 644.28L526.897 697.982L500.036 724.564C495.595 729.005 491.295 734.028 486.496 738.057C484.396 739.82 481.966 741.489 479.132 741.578C477.116 741.642 475.656 740.718 473.965 739.75L473.282 739.365C470.172 737.568 458.184 727.081 457.09 724.104C456.811 723.251 451.904 719.662 450.874 718.757L450.899 717.764L452.25 719C453.108 719.594 453.915 720.079 454.745 720.75L455.506 719.998L455.44 719.393C454.766 718.699 454.195 718.064 453.362 717.556L452.885 717.299L453.01 716.331C454.556 716.391 465.619 726.261 467.703 727.787C469.901 729.396 472.305 730.677 474.726 731.913C478.481 730.583 481.07 728.604 484.048 726.006C492.329 718.784 499.438 710.172 507.273 702.468L566.392 644.659L608.428 603.128L608.673 602.486L615.343 596.064L622.978 587.901C623.593 587.217 625.149 585.86 625.5 585.078C625.786 584.441 625.35 584.073 625.045 583.564L617.65 572.152C616.696 570.679 615.208 569.003 615.193 567.25L617.263 566.933L618.155 566.937ZM608.428 603.128L566.392 644.659L507.273 702.468C499.438 710.172 492.329 718.784 484.048 726.006C481.07 728.604 478.481 730.583 474.726 731.913C472.305 730.677 469.901 729.396 467.703 727.787C465.619 726.261 454.556 716.391 453.01 716.331L452.885 717.299L453.362 717.556C454.195 718.064 454.766 718.699 455.44 719.393L455.506 719.998L454.745 720.75C453.915 720.079 453.108 719.594 452.25 719L450.899 717.764L450.874 718.757C451.904 719.662 456.811 723.251 457.09 724.104C461.182 726.64 465.075 729.775 469.093 732.472C470.59 733.477 472.647 735.099 474.409 735.495C475.95 735.842 477.806 735.727 479.385 735.743C483.151 734.125 486.54 730.208 489.465 727.395L506.909 710.275L547.952 669.564L611.816 606.191L608.428 603.128Z"/>
	<path fill="#4D80A1" d="M617.263 566.933L618.155 566.937C623.36 569.076 627.24 576.372 629.355 581.409C630.222 583.476 630.972 585.603 629.928 587.75C628.891 589.881 626.5 591.74 624.786 593.382C620.491 597.493 615.551 601.581 611.816 606.191L608.428 603.128L608.673 602.486L615.343 596.064L622.978 587.901C623.593 587.217 625.149 585.86 625.5 585.078C625.786 584.441 625.35 584.073 625.045 583.564L617.65 572.152C616.696 570.679 615.208 569.003 615.193 567.25L617.263 566.933Z"/>
	<defs>
		<linearGradient id="gradient_2" gradientUnits="userSpaceOnUse" x1="545.93829" y1="675.77625" x2="518.87384" y2="650.92841">
			<stop offset="0" stop-color="#1FFBE4" stop-opacity="0.98823529"/>
			<stop offset="1" stop-color="#30AFC7"/>
		</linearGradient>
	</defs>
	<path fill="url(#gradient_2)" d="M608.428 603.128L611.816 606.191L547.952 669.564L506.909 710.275L489.465 727.395C486.54 730.208 483.151 734.125 479.385 735.743C477.806 735.727 475.95 735.842 474.409 735.495C472.647 735.099 470.59 733.477 469.093 732.472C465.075 729.775 461.182 726.64 457.09 724.104C456.811 723.251 451.904 719.662 450.874 718.757L450.899 717.764L452.25 719C453.108 719.594 453.915 720.079 454.745 720.75L455.506 719.998L455.44 719.393C454.766 718.699 454.195 718.064 453.362 717.556L452.885 717.299L453.01 716.331C454.556 716.391 465.619 726.261 467.703 727.787C469.901 729.396 472.305 730.677 474.726 731.913C478.481 730.583 481.07 728.604 484.048 726.006C492.329 718.784 499.438 710.172 507.273 702.468L566.392 644.659L608.428 603.128Z"/>
	<path fill="#3D426F" d="M525.949 319.788C528.52 321.503 530.678 323.357 532.901 325.501L495.114 325.472C492.671 325.466 487.905 324.738 485.725 325.308C484.454 325.641 482.817 326.93 481.873 327.862C480.681 329.037 479.502 330.284 478.622 331.71L487.451 342.324C484.229 343.015 479.908 342.521 476.571 342.521L454.194 342.522L364.252 342.578L349.001 342.609C347.498 342.589 344.434 342.12 343.139 342.487C340.764 343.16 337.112 347.552 335.244 349.312L323.803 359.69C323.236 360.209 320.952 362.594 320.341 362.755C318.044 363.36 313.282 362.565 310.744 362.496C311.992 356.726 313.08 351.631 309.644 346.368C307.598 343.235 304.358 341.034 300.665 340.351C296.175 339.521 292.019 340.435 288.319 343.114C285.732 344.987 283.869 347.803 283.5 351C283.038 355.014 284.115 358.679 285.078 362.521L261.932 362.543C262.4 356.172 263.318 349.473 258.742 344.243C256.606 341.802 253.069 339.648 249.75 339.521C245.138 339.344 240.042 340.9 236.677 344.177C234.916 345.892 233.75 348.378 232.643 350.555C227.695 347.551 220.847 345.023 218.03 339.645L238.544 320.337C239.19 320.764 239.732 321.044 240.526 321.073L279.522 320.993L352.493 320.992C352.489 325.948 352.038 329.394 355.757 333.108C357.328 334.678 364.986 333.983 367.551 334.005L408.926 333.33L420.918 333.414C422.266 332.099 423.57 330.87 424.398 329.152L424.65 328.599C425.878 326.021 425.503 322.938 425.464 320.138L525.949 319.788Z"/>
	<path fill="#FEEFAB" d="M169.669 417.037L205.883 371.039L324.843 371.244C326.914 371.421 339.45 357.709 341.768 355.403C342.758 354.418 344.813 352.051 346.083 351.672C347.514 351.246 351.068 351.931 352.801 351.961L370.426 351.997L450.665 352.012C465.695 352.007 480.959 352.585 495.945 351.673L521.254 377.978L778.987 377.505L778.949 384.069L775.5 384.6C769.857 385.497 763.696 385.028 757.98 385.035L723.396 384.995C720.48 384.97 717.646 384.499 714.703 384.518L701.818 385.016L517.162 384.046L325.072 382.005L226.924 381.456L226.177 380.789L208.346 380.872L188.889 406.076C186.1 409.792 182.825 413.269 180.429 417.249C177.792 416.423 172.587 417.071 169.669 417.037Z"/>
	<path fill="#FAE26B" d="M226.177 380.789C227.039 380.027 228.648 379.826 229.75 379.498C234.251 378.16 240.732 378.966 245.47 378.986L289.787 379.834C301.728 380.106 313.805 379.604 325.7 380.748L325.072 382.005L226.924 381.456L226.177 380.789Z"/>
	<path fill="#F9C374" d="M325.7 380.748C328.019 377.556 331.357 375.309 334.281 372.705C338.836 368.648 342.922 364.426 348.055 361.078L396.834 360.466L421.502 359.919L441.526 360.409C445.696 360.648 449.806 361.361 453.987 361.374L484.253 361.018C486.768 361.018 490.444 360.563 492.832 361.078C495.744 361.705 506.956 373.333 509.713 376.008L517.162 384.046L325.072 382.005L325.7 380.748Z"/>
	<path fill="#0FF0D5" d="M451.232 363.256L456.602 363.041C459.03 362.985 460.223 363.037 462.026 364.75C462.475 367.42 462.589 369.814 461.25 372.245C460.833 372.477 460.456 372.802 460 372.94C459.277 373.159 457.622 372.949 456.837 372.952L448.334 372.989L409.125 373.294C405.255 373.381 401.124 373.787 397.366 372.75C395.568 370.362 396.484 366.289 396.872 363.475L451.232 363.256Z"/>
	<path fill="#942718" d="M205.651 523.839L268.831 523.223L285.526 549.07L186.876 745.514L154.729 745.508C150.227 740.533 144.007 734.343 141.478 728.029L141.129 727.541L167.281 683.004L176.528 668.5C178.822 665.12 181.617 661.722 183.365 658.043L219.505 658.036L220.358 656.995C217.825 656.053 214.619 656.259 211.928 656.127L186.543 655.992C187.394 654.815 187.95 652.814 188.521 651.453L189.095 651.107C192.171 643.869 197.736 637.064 201.965 630.371L229.903 585.797C233.065 586.128 250.12 586.581 251.84 585.385L251.357 584.002L232.489 583.998C232.226 582.225 232.689 580.861 233.18 579.162L233.428 579.017C237.224 571.354 242.787 564.039 247.47 556.845L239.53 544.519L192.945 542.479C194.544 538.951 198.404 535.208 200.921 532.216L201.389 532.38C202.852 529.522 204.922 526.961 206.676 524.271L205.651 523.839Z"/>
	<path fill="#F06005" d="M183.365 658.043L219.505 658.036C214.592 669.632 208.34 680.915 202.7 692.195C198.453 700.69 194.587 710.645 188.954 718.25C186.364 721.747 182.844 725.265 178.778 726.948C177.205 727.598 175.673 727.841 174 728.062L173.111 728.185C168.267 728.79 163.191 728.281 158.314 728.247C152.742 728.209 147.016 728.518 141.478 728.029L141.129 727.541L167.281 683.004L176.528 668.5C178.822 665.12 181.617 661.722 183.365 658.043Z"/>
	<path fill="#F06005" d="M200.921 532.216L201.389 532.38C215.452 533.358 229.658 532.956 243.75 532.954C247.24 532.953 250.822 532.793 254.3 533.009C254.648 533.031 256.246 533.016 256.539 533.181C256.989 533.435 257.611 534.365 257.98 534.789C263.306 540.919 265.677 549.088 270.941 555.377L220.358 656.995C217.825 656.053 214.619 656.259 211.928 656.127L186.543 655.992C187.394 654.815 187.95 652.814 188.521 651.453L189.095 651.107C192.171 643.869 197.736 637.064 201.965 630.371L229.903 585.797C233.065 586.128 250.12 586.581 251.84 585.385L251.357 584.002L232.489 583.998C232.226 582.225 232.689 580.861 233.18 579.162L233.428 579.017C237.224 571.354 242.787 564.039 247.47 556.845L239.53 544.519L192.945 542.479C194.544 538.951 198.404 535.208 200.921 532.216Z"/>
	<path fill="#942718" d="M233.428 579.017C238.566 578.874 245.986 577.808 250.75 579.831C251.693 581.331 251.496 582.253 251.357 584.002L232.489 583.998C232.226 582.225 232.689 580.861 233.18 579.162L233.428 579.017Z"/>
	<path fill="#942718" d="M189.095 651.107L208.309 650.989C211.242 650.991 214.842 650.515 217.503 651.75C218.153 652.739 218.22 653.604 218.397 654.75L217.941 655.876L211.928 656.127L186.543 655.992C187.394 654.815 187.95 652.814 188.521 651.453L189.095 651.107Z"/>
	<path fill="#FAE26B" d="M192.945 542.479L239.53 544.519L247.47 556.845C242.787 564.039 237.224 571.354 233.428 579.017L233.18 579.162C232.689 580.861 232.226 582.225 232.489 583.998L251.357 584.002L251.84 585.385C250.12 586.581 233.065 586.128 229.903 585.797L201.965 630.371C197.736 637.064 192.171 643.869 189.095 651.107L188.521 651.453C187.95 652.814 187.394 654.815 186.543 655.992L211.928 656.127C214.619 656.259 217.825 656.053 220.358 656.995L219.505 658.036L183.365 658.043C181.617 661.722 178.822 665.12 176.528 668.5L167.281 683.004L141.129 727.541L97.3416 668.437C94.9313 664.912 92.7224 661.121 90.9654 657.227L183.53 543.029L192.089 543.093L192.945 542.479Z"/>
	<path fill="#B63A11" d="M233.18 579.162C232.689 580.861 232.226 582.225 232.489 583.998L161.494 583.987L164.789 579.476L233.18 579.162Z"/>
	<path fill="#B63A11" d="M110.728 650.987L168.049 651.174L181.909 651.224C183.973 651.235 186.563 650.945 188.521 651.453C187.95 652.814 187.394 654.815 186.543 655.992L107.636 656.007L110.728 650.987Z"/>
	<path fill="#FEA402" d="M192.945 542.479L239.53 544.519L247.47 556.845C242.787 564.039 237.224 571.354 233.428 579.017L233.18 579.162L164.789 579.476L192.089 543.093L192.945 542.479Z"/>
	<path fill="#F28535" d="M97.3416 668.437C100.589 665.325 103.853 658.475 108.154 657.25C110.637 657.854 113.482 657.591 116.045 657.608L130.262 657.689L183.365 658.043C181.617 661.722 178.822 665.12 176.528 668.5L167.281 683.004L141.129 727.541L97.3416 668.437Z"/>
	<path fill="#FEA402" d="M110.728 650.987C117.353 640.536 125.89 630.931 133.275 620.956L149.067 599.5C152.483 594.824 155.643 589.809 159.718 585.681L229.903 585.797L201.965 630.371C197.736 637.064 192.171 643.869 189.095 651.107L188.521 651.453C186.563 650.945 183.973 651.235 181.909 651.224L168.049 651.174L110.728 650.987Z"/>
	<defs>
		<linearGradient id="gradient_3" gradientUnits="userSpaceOnUse" x1="559.98102" y1="560.70483" x2="548.12531" y2="410.62878">
			<stop offset="0" stop-color="#80201C"/>
			<stop offset="1" stop-color="#A6391B"/>
		</linearGradient>
	</defs>
	<path fill="url(#gradient_3)" d="M169.074 440.042L182.017 439.973L216.223 504.352L278.326 504.585L292.313 529.643C294.627 533.823 296.703 538.759 299.609 542.505L435.829 542.803C438.229 540.76 440.119 538.041 442.097 535.587L451.75 523.776L484.407 485.35L548.21 485.32C558.649 485.321 569.633 484.627 580.018 485.428C581.394 485.534 582.466 485.821 583.674 486.485L623.321 509.566L623.724 509.758C625.862 509.196 628.492 509.445 630.722 509.428L644.952 509.394L696.99 509.332L937.483 509.105L937.54 532.139L633.5 532.888C632.762 534.277 632.947 535.621 632.929 537.164L632.441 533.5L631.04 533.082L625.5 533.044C624.25 534.317 624.832 536.774 624.576 538.53L624.549 539.488L592.995 539.962L592.785 533.121C592.108 533.507 588.489 532.977 587.501 532.923L583.99 533.073C582.931 533.589 580.095 533.417 578.815 533.506L575.644 517.959C574.99 514.525 574.269 509.381 571.599 506.899C570.992 506.335 570.086 505.707 569.268 505.633C561.577 504.937 553.102 505.931 545.335 505.979L491.712 506.018C486.658 510.809 482.358 516.417 477.931 521.781C468.022 533.79 458.449 546.63 447.733 557.895C446.702 558.978 444.599 561.396 443.226 561.99C441.671 562.662 438.262 562.222 436.471 562.224L416.684 562.242L305.287 562.863L272.985 512.477L205.948 513.51C197.061 498.521 189.668 482.875 182.004 467.25C177.573 458.216 172.642 449.468 169.074 440.042Z"/>
	<path fill="#300436" d="M592.785 533.121C597.006 533.031 622.73 532.169 624.412 533.5L624.576 538.53L624.549 539.488L592.995 539.962L592.785 533.121Z"/>
	<path fill="#450A33" d="M299.609 542.505L435.829 542.803C438.229 540.76 440.119 538.041 442.097 535.587L451.75 523.776L484.407 485.35L548.21 485.32C558.649 485.321 569.633 484.627 580.018 485.428C581.394 485.534 582.466 485.821 583.674 486.485L623.321 509.566L623.724 509.758L624.214 510.263C622.742 510.365 622.237 510.106 621 509.414C619.585 509.728 618.939 510.849 617.75 511.298C616.716 511.689 615.673 510.998 614.889 511.98L614 513.006C611.794 512.431 609.538 510.625 607.557 509.474L589.811 499.047C586.787 497.201 582.852 493.94 579.5 493.009C577.12 492.347 573.977 492.688 571.491 492.683L555.5 492.677L502.863 492.538L491 492.507C490.011 492.511 488.397 492.33 487.563 492.82C481.645 496.295 477.416 503.521 473.054 508.689L446.613 540.055C444.369 542.686 442.225 545.695 439.699 548.044C439.486 548.242 438.475 549.28 438.19 549.354C434.844 550.221 429.524 549.379 425.928 549.296L406.64 549.219L301.248 549.509L299.609 542.505Z"/>
	<path fill="#3D426F" d="M463.126 573.504L518.503 573.98L565.331 573.85L576.89 573.807C578.25 573.806 580.808 573.584 582.061 574.021C583.461 574.51 585.623 576.435 586.686 577.509L608.673 602.486L608.428 603.128L566.392 644.659L507.273 702.468C499.438 710.172 492.329 718.784 484.048 726.006C481.07 728.604 478.481 730.583 474.726 731.913C472.305 730.677 469.901 729.396 467.703 727.787C465.619 726.261 454.556 716.391 453.01 716.331L452.885 717.299L453.362 717.556C454.195 718.064 454.766 718.699 455.44 719.393L455.506 719.998L454.745 720.75C453.915 720.079 453.108 719.594 452.25 719L450.899 717.764L450.874 718.757C451.904 719.662 456.811 723.251 457.09 724.104C458.184 727.081 470.172 737.568 473.282 739.365L473.965 739.75C475.656 740.718 477.116 741.642 479.132 741.578C481.966 741.489 484.396 739.82 486.496 738.057C491.295 734.028 495.595 729.005 500.036 724.564L526.897 697.982L580.952 644.28L614.602 610.598L615.102 610.589L622.676 619.019L517.935 721.61L489.636 749.736C485.12 754.375 481.023 759.904 475.92 763.887L475.307 764.373C473.546 765.701 471.117 766.121 468.957 765.661C466.674 765.176 464.533 762.875 462.843 761.353L445.175 744.117C437.218 736.65 428.861 729.85 421.293 721.917C424.56 714.852 426.321 706.499 428.458 699L442.237 647.949L451.388 613.288C454.503 601.776 459.096 588.509 459.436 576.588L463.126 573.504Z"/>
	<path fill="#74A8C8" d="M443.818 708.765C446.809 711.143 450.455 713.516 453.01 716.331L452.885 717.299L453.362 717.556C454.195 718.064 454.766 718.699 455.44 719.393L455.506 719.998L454.745 720.75C453.915 720.079 453.108 719.594 452.25 719L450.899 717.764L450.874 718.757C447.845 716.498 443.766 714.159 441.389 711.25C441.795 710.018 442.812 709.484 443.818 708.765Z"/>
	<path fill="#0FF0D5" d="M519.043 584.75L519.823 584.584C523.076 584.068 527.55 584.295 530.23 586.25C531.698 589.459 531.758 623.451 530.411 626.623C529.642 628.432 528.486 629.091 526.754 629.868C522.892 630.405 520.029 630.795 516.707 628.293C515.372 626.172 515.503 624.274 515.334 621.883C514.857 615.167 515.36 608.471 515.391 601.75C515.41 597.542 514.533 592.296 515.551 588.25C516.026 586.359 517.435 585.624 519.043 584.75Z"/>
	<path fill="#0FF0D5" d="M556.28 584.19C558.274 584.13 560.813 584.084 562.75 584.564C563.74 584.809 564.85 585.702 565.246 586.647C566.357 589.299 566.828 625.058 565.112 627.688C563.869 629.595 562.288 630.213 560.125 630.54C558.144 630.562 555.568 630.858 553.75 629.995C552.357 629.334 551.069 627.987 550.655 626.491C549.597 622.664 550.415 617.51 550.391 613.5C550.349 606.49 549.855 599.505 550.331 592.5C550.433 590.996 550.3 588.661 551.077 587.387C552.26 585.445 554.14 584.617 556.28 584.19Z"/>
	<path fill="#0FF0D5" d="M486.667 584.179C488.507 584.363 491.068 584.44 492.633 585.507C494.372 586.692 495.176 588.732 495.374 590.75C495.905 596.186 496.487 625.586 493.734 628.828C492.466 630.322 490.441 630.347 488.624 630.532L482.683 630.279C481.026 629.938 480.013 628.69 479.274 627.25C477.941 624.653 478.697 619.802 478.665 616.857L478.456 597.234C478.469 594.032 478.218 590.395 479.25 587.349C481.365 584.77 483.463 584.593 486.667 584.179Z"/>
	<path fill="#300436" d="M443.818 708.765C445.087 707.194 445.499 703.993 446.121 702L454.801 669.737C456.927 661.355 459.015 652.376 467.197 647.793C471.078 645.619 474.963 644.655 479.371 644.227C484.186 643.758 489.194 644.015 494.035 644.013L520.383 644.011L546.12 643.771C552.521 643.67 560.172 643.025 566.392 644.659L507.273 702.468C499.438 710.172 492.329 718.784 484.048 726.006C481.07 728.604 478.481 730.583 474.726 731.913C472.305 730.677 469.901 729.396 467.703 727.787C465.619 726.261 454.556 716.391 453.01 716.331C450.455 713.516 446.809 711.143 443.818 708.765Z"/>
	<path fill="#F28535" d="M180.429 417.249C182.825 413.269 186.1 409.792 188.889 406.076L208.346 380.872L226.177 380.789L226.924 381.456L325.072 382.005L517.162 384.046L701.818 385.016L714.703 384.518C717.646 384.499 720.48 384.97 723.396 384.995L757.98 385.035C763.696 385.028 769.857 385.497 775.5 384.6L778.949 384.069L778.689 399.887C773.216 399.962 766.837 399.485 761.481 400.405L762.413 400.768C764.503 401.497 768.245 401.371 770.375 400.799C772.736 400.165 775.451 400.48 777.75 401.149L779.179 401.432C779.205 403.811 779.205 406.04 779.755 408.374C780.803 412.825 779.984 419.391 780.001 424.066L780.305 456.834C779.097 458.572 777.681 458.533 775.705 458.96L779.801 459.069L817.118 459.414L833.064 459.569L850.963 459.58L882.601 459.563C886.496 459.557 891.606 460.144 895.366 459.381C897.352 458.979 898.965 457.944 900.385 456.531C903.478 453.453 904.004 449.152 903.905 444.965L903.477 436.417L937.762 436.436L937.589 464.492L937.483 509.105L696.99 509.332L644.952 509.394L630.722 509.428C628.492 509.445 625.862 509.196 623.724 509.758L623.321 509.566L583.674 486.485C582.466 485.821 581.394 485.534 580.018 485.428C569.633 484.627 558.649 485.321 548.21 485.32L484.407 485.35L451.75 523.776L442.097 535.587C440.119 538.041 438.229 540.76 435.829 542.803L299.609 542.505C296.703 538.759 294.627 533.823 292.313 529.643L278.326 504.585L216.223 504.352L182.017 439.973L169.074 440.042L168.207 438.798C167.354 437.526 167.236 435.889 166.961 434.409L166.973 421.489C167.647 419.718 168.457 418.489 169.669 417.037C172.587 417.071 177.792 416.423 180.429 417.249Z"/>
	<path fill="#B63A11" d="M310.157 531.976L311.826 532.079L316.98 532.523C318.574 532.572 319.971 532.854 321.523 533.195L326.499 534.029C320.888 534.892 315.626 535.329 309.948 535.028L310.157 531.976Z"/>
	<path fill="#655866" d="M311.19 486.864L313.488 487.526C314.747 489.625 315.966 491.706 317.499 493.622L323.052 502.13C325.43 506.469 327.633 511.002 331.127 514.568C331.821 516.11 332.131 517.287 332.296 518.973L329.532 518.893C326.768 515.961 324.628 510.78 322.612 507.187L311.19 486.864Z"/>
	<path fill="#300436" d="M347.525 420.014L357.931 420.001L357.668 431.809L347.539 431.792L347.525 420.014Z"/>
	<path fill="#300436" d="M329.9 419.75C331.546 419.383 333.318 419.102 335 419.413C336.325 419.657 337.117 420.163 337.75 421.382C338.773 423.353 338.352 429.031 337.658 431.147L335.833 431.75L327.808 431.995L327.958 422.5C328.178 420.919 328.628 420.645 329.9 419.75Z"/>
	<path fill="#300436" d="M347.533 433.478L357.489 433.49C357.711 437.207 358.576 443.683 356.75 446.944L356.094 447.234C353.82 447.931 350.684 447.86 348.5 446.934C346.232 444.205 347.362 437.039 347.533 433.478Z"/>
	<path fill="#300436" d="M327.941 433.044L337.948 433.001C338.008 437.318 338.752 442.8 336.856 446.75C334.146 448.054 331.85 447.683 329.049 446.882C326.676 444.27 327.776 436.513 327.941 433.044Z"/>
	<path fill="#FEA402" d="M857.324 471.331L888.47 471.227C891.821 471.239 897.441 470.558 900.493 471.614L899.731 471.713L894.75 472.004C894.032 473.202 893.982 473.142 894.25 474.501C896.176 475.549 897.974 474.607 899.939 475.934L858.008 475.664L858.947 473.25L857.324 471.331Z"/>
	<path fill="#F9C374" d="M180.429 417.249C182.825 413.269 186.1 409.792 188.889 406.076L208.346 380.872L226.177 380.789L226.924 381.456L226.372 382.228L208.609 408.522C206.871 411.03 204.217 416.011 201.588 417.492L188.392 417.487C185.808 417.482 182.967 417.71 180.429 417.249Z"/>
	<path fill="#B73651" d="M166.961 434.409L190.331 434.001C193.577 433.967 197.492 433.508 200.627 434.133L228.119 485.607L283.949 485.537L300.726 514.972C303.857 520.641 306.411 526.676 310.157 531.976L309.948 535.028L308.122 534.683C307.278 534.48 306.806 534.315 306.25 533.6C303.358 529.88 301.196 524.366 298.824 520.198L281.281 490.26L250.192 490.574C242.568 490.714 233.971 491.719 226.48 490.363C220.069 483.087 215.963 473.39 211.618 464.769L197.657 438.174C188.498 436.857 177.346 437.653 168.207 438.798C167.354 437.526 167.236 435.889 166.961 434.409Z"/>
	<path fill="#300436" d="M308.565 482.612C306.722 480.004 305.375 477.42 304.061 474.513L413.89 474.332L441.749 474.221C446.184 474.187 451.124 473.529 455.485 474.339C457.399 474.695 458.153 475.473 459.155 477.095C459.572 477.769 459.215 478.267 459.039 479.007L456.527 481.69C453.569 480.229 449.969 480.66 446.748 480.644L413.998 481.404L375 481.673L353.792 482.299L322.905 482.278C318.94 482.25 312.781 481.256 309.064 482.371L308.565 482.612Z"/>
	<path fill="#300436" d="M680.941 498.402C676.423 500.231 668.496 499.455 663.537 499.464L629.552 499.211L629.432 483.024C629.416 480.842 629.04 477.965 629.75 475.932C634.129 478.04 639.502 477.166 644.25 477.089L670.527 476.952C674.111 476.948 679.789 476.187 682.823 478.129C684.234 483.265 683.44 489.679 683.363 495C682.62 496.251 681.882 497.293 680.941 498.402Z"/>
	<path fill="#B73651" d="M637.064 483.996L672.576 484.003L672.501 489.994L637.078 490.209L637.064 483.996Z"/>
	<path fill="#FAE26B" d="M459.039 479.007L464.031 480.884L424.873 527.012L325.504 527.007C325.662 524.655 325.623 522.122 326.352 519.87C327.605 518.976 327.973 519.015 329.532 518.893L332.296 518.973C332.131 517.287 331.821 516.11 331.127 514.568C338.576 514.546 420.932 515.766 422.639 515.009C423.197 514.762 425.337 511.474 426.152 510.704L426.486 510.395C428.589 510.661 431.004 509.377 432.913 508.605C435.651 506.677 438.165 502.916 440.387 500.363L456.527 481.69L459.039 479.007Z"/>
	<path fill="#18919A" d="M426.486 510.395C428.589 510.661 431.004 509.377 432.913 508.605C429.934 512.59 426.824 516.673 422.288 518.974L332.296 518.973C332.131 517.287 331.821 516.11 331.127 514.568C338.576 514.546 420.932 515.766 422.639 515.009C423.197 514.762 425.337 511.474 426.152 510.704L426.486 510.395Z"/>
	<path fill="#F9C374" d="M166.973 421.489L207.075 421.494C209.161 430.947 214.136 439.949 218.338 448.642L232.367 476.997L288.527 477.021L307.464 510.5L314.101 522.142C315.675 524.92 317.4 527.602 318.102 530.75L317.75 531.958L311.826 532.079L310.157 531.976C306.411 526.676 303.857 520.641 300.726 514.972L283.949 485.537L228.119 485.607L200.627 434.133C197.492 433.508 193.577 433.967 190.331 434.001L166.961 434.409L166.973 421.489Z"/>
	<defs>
		<linearGradient id="gradient_4" gradientUnits="userSpaceOnUse" x1="382.08981" y1="479.38998" x2="383.45389" y2="510.1319">
			<stop offset="0" stop-color="#064463"/>
			<stop offset="1" stop-color="#300E7B"/>
		</linearGradient>
	</defs>
	<path fill="url(#gradient_4)" d="M308.565 482.612L309.064 482.371C312.781 481.256 318.94 482.25 322.905 482.278L353.792 482.299L375 481.673L413.998 481.404L446.748 480.644C449.969 480.66 453.569 480.229 456.527 481.69L440.387 500.363C438.165 502.916 435.651 506.677 432.913 508.605C431.004 509.377 428.589 510.661 426.486 510.395L426.152 510.704C425.337 511.474 423.197 514.762 422.639 515.009C420.932 515.766 338.576 514.546 331.127 514.568C327.633 511.002 325.43 506.469 323.052 502.13L317.499 493.622C315.966 491.706 314.747 489.625 313.488 487.526L311.19 486.864C310.371 486.27 309.162 483.591 308.565 482.612Z"/>
	<defs>
		<linearGradient id="gradient_5" gradientUnits="userSpaceOnUse" x1="381.10205" y1="474.64011" x2="375.06857" y2="503.87921">
			<stop offset="0" stop-color="#00A684"/>
			<stop offset="1" stop-color="#009B97"/>
		</linearGradient>
	</defs>
	<path fill="url(#gradient_5)" d="M313.488 487.526L314.25 486.243L444.742 486.565C443.075 488.996 441.486 491.479 439.411 493.587C438.94 493.323 438.847 493.234 438.241 493.105C435.839 492.591 432.493 492.991 429.982 492.968L405.122 493.01L326.126 492.834C323.627 492.87 319.721 492.49 317.499 493.622C315.966 491.706 314.747 489.625 313.488 487.526Z"/>
	<path fill="#03BBA5" d="M317.499 493.622C319.721 492.49 323.627 492.87 326.126 492.834L405.122 493.01L429.982 492.968C432.493 492.991 435.839 492.591 438.241 493.105C438.847 493.234 438.94 493.323 439.411 493.587C437.999 495.7 436.645 497.75 434.889 499.603C433.207 498.795 431.288 499.718 429.5 499.89L415.25 500.911L402.659 500.992L352.142 500.994L333.586 501.004C330.344 501.007 326.701 500.628 323.625 501.841L323.052 502.13L317.499 493.622Z"/>
	<path fill="#0FF0D5" d="M323.052 502.13L323.625 501.841C326.701 500.628 330.344 501.007 333.586 501.004L352.142 500.994L402.659 500.992L415.25 500.911L429.5 499.89C431.288 499.718 433.207 498.795 434.889 499.603L426.486 510.395L426.152 510.704C425.337 511.474 423.197 514.762 422.639 515.009C420.932 515.766 338.576 514.546 331.127 514.568C327.633 511.002 325.43 506.469 323.052 502.13Z"/>
	<path fill="#300436" d="M243.385 401.747L280.876 401.943C288.015 401.957 295.731 401.41 302.805 402.104C304.94 402.313 305.648 402.565 307.25 403.946C307.643 405.147 307.867 406.116 307.928 407.387C308.397 417.14 307.816 427 307.752 436.763C307.718 442.09 308.324 447.638 307.725 452.926C307.542 454.543 307.389 455.991 306.157 457.157C303.234 459.925 291.841 458.604 287.588 458.49L238.459 458.493C235.352 454.614 233.084 450.011 230.778 445.632L221.767 428.484C223.476 424.999 225.932 421.739 228.083 418.504L238.855 402.114L243.385 401.747Z"/>
	<path fill="#30517F" d="M243.779 409.995L298.954 410.49L299.021 450.015L288.166 449.748L243.5 449.789L232.345 428.617L243.779 409.995Z"/>
	<path fill="#18919A" d="M246.194 415.009L285.743 415.175C288.117 415.339 291.308 415.51 292.804 417.644C294.924 420.67 294.635 433.719 293.644 437.447C292.804 440.605 289.999 442.442 287.376 444.049L250.706 444.51C246.835 440.698 239.366 433.552 238.976 427.736C238.675 423.239 243.278 418.057 246.194 415.009Z"/>
	<path fill="#0FF0D5" d="M250.503 422.02L272.954 422.104C275.184 422.124 280.475 421.726 282.262 422.998C283.63 423.972 284.953 425.252 285.062 427C285.169 428.718 285.35 430.096 284.25 431.424L278.625 431.425L242.476 431.014C244.808 427.402 247.161 424.722 250.503 422.02Z"/>
	<path fill="#FAE26B" d="M850.963 459.58L882.601 459.563C886.496 459.557 891.606 460.144 895.366 459.381C897.352 458.979 898.965 457.944 900.385 456.531C903.478 453.453 904.004 449.152 903.905 444.965L903.477 436.417L937.762 436.436L937.589 464.492L485.933 464.522L487.01 462C489.237 458.44 495.229 459.518 498.883 458.707L499.288 458.612L512.124 458.721C512.92 457.909 512.613 458.329 513.097 457.5C512.076 457.098 512.159 457.051 511.533 456.25C511.641 455.716 511.643 455.534 511.949 455C512.731 453.638 513.647 453.089 515.08 452.711L691.25 452.375C695.314 452.402 699.099 451.345 703.116 451.096C708.253 450.778 713.562 451.186 718.707 451.354C717.817 453.618 716.832 455.869 716.25 458.234C718.18 458.347 720.475 458.243 722.291 458.922C727.175 459.744 731.626 459.105 736.5 459.027L766 458.993C768.537 458.966 773.435 459.656 775.705 458.96L779.801 459.069L817.118 459.414L833.064 459.569L850.963 459.58Z"/>
	<path fill="#3D3060" d="M515.08 452.711L691.25 452.375C695.314 452.402 699.099 451.345 703.116 451.096C708.253 450.778 713.562 451.186 718.707 451.354C717.817 453.618 716.832 455.869 716.25 458.234C718.18 458.347 720.475 458.243 722.291 458.922L512.124 458.721C512.92 457.909 512.613 458.329 513.097 457.5C512.076 457.098 512.159 457.051 511.533 456.25C511.641 455.716 511.643 455.534 511.949 455C512.731 453.638 513.647 453.089 515.08 452.711Z"/>
	<path fill="#1F164F" d="M389.285 458.533C386.857 458.492 382.853 458.644 380.75 457.471C379.669 456.132 378.915 454.981 378.632 453.25C377.616 447.016 378.442 439.582 378.453 433.25C378.469 424.402 377.586 414.687 378.75 405.943C378.99 404.141 379.576 403.092 380.654 401.655C382.003 400.93 382.992 400.571 384.533 400.514C389.099 400.345 393.747 400.737 398.325 400.746L435.486 400.768L552.082 400.762L689.75 400.467L761.481 400.405L762.413 400.768C764.503 401.497 768.245 401.371 770.375 400.799C772.736 400.165 775.451 400.48 777.75 401.149L779.179 401.432C779.205 403.811 779.205 406.04 779.755 408.374C780.803 412.825 779.984 419.391 780.001 424.066L780.305 456.834C779.097 458.572 777.681 458.533 775.705 458.96C773.435 459.656 768.537 458.966 766 458.993L736.5 459.027C731.626 459.105 727.175 459.744 722.291 458.922C720.475 458.243 718.18 458.347 716.25 458.234C716.832 455.869 717.817 453.618 718.707 451.354L749.704 450.9C752.378 451.278 755.612 450.915 758.337 450.898L775.873 450.785L775.981 432.367C776.009 429.115 776.425 425.262 775.641 422.122C775.432 420.909 775.631 419.594 775.701 418.365L775.224 417.277C772.013 416.124 768.156 416.656 764.725 415.931L764.044 415.781C764.685 415.384 764.439 415.447 765.096 415.331C766.12 415.149 766.847 415.102 767.75 414.513C768.136 413.243 768.702 411.974 768.405 410.64C766.012 410.249 763.399 411.122 761 411.412C760.694 410.608 762.456 409.635 762.907 408.545L757.696 408.636L388.112 409.209L388.025 436.843C388.015 440.915 387.215 446.809 388.75 450.567C389.167 450.861 389.528 451.256 390 451.449C391.335 451.995 395.212 451.646 396.781 451.705L429.584 452.237L515.08 452.711C513.647 453.089 512.731 453.638 511.949 455C511.643 455.534 511.641 455.716 511.533 456.25C512.159 457.051 512.076 457.098 513.097 457.5C512.613 458.329 512.92 457.909 512.124 458.721L499.288 458.612L498.883 458.707C495.229 459.518 489.237 458.44 487.01 462L485.933 464.522C473.029 465.471 459.8 463.596 446.906 463.141L424.5 462.523C420.907 462.479 416.789 463.197 413.366 462.032C409.19 460.612 404.111 460.87 399.758 460.964C398.341 460.994 396.888 461.411 395.491 461.191L390.75 460.486L389.285 458.533Z"/>
	<path fill="#3D426F" d="M762.907 408.545C767.148 407.921 771.723 408.057 775.987 408.431C775.976 411.635 776.264 415.227 775.701 418.365L775.224 417.277C772.013 416.124 768.156 416.656 764.725 415.931L764.044 415.781C764.685 415.384 764.439 415.447 765.096 415.331C766.12 415.149 766.847 415.102 767.75 414.513C768.136 413.243 768.702 411.974 768.405 410.64C766.012 410.249 763.399 411.122 761 411.412C760.694 410.608 762.456 409.635 762.907 408.545Z"/>
	<path fill="#F9C374" d="M389.285 458.533L499.288 458.612L498.883 458.707C495.229 459.518 489.237 458.44 487.01 462L485.933 464.522C473.029 465.471 459.8 463.596 446.906 463.141L424.5 462.523C420.907 462.479 416.789 463.197 413.366 462.032C409.19 460.612 404.111 460.87 399.758 460.964C398.341 460.994 396.888 461.411 395.491 461.191L390.75 460.486L389.285 458.533Z"/>
	<defs>
		<linearGradient id="gradient_6" gradientUnits="userSpaceOnUse" x1="796.65479" y1="460.55933" x2="802.23523" y2="512.07739">
			<stop offset="0" stop-color="#FA9123"/>
			<stop offset="1" stop-color="#FFCB5E"/>
		</linearGradient>
	</defs>
	<path fill="url(#gradient_6)" d="M682.823 478.129C684.926 476.654 692.945 484.581 696.567 484.019C699.545 483.557 702.972 480.742 704.637 478.341C706.442 475.737 708.777 473.416 710.915 471.079L702.25 470.801L701.913 470.25L857.324 471.331L858.947 473.25L858.008 475.664L899.939 475.934C897.974 474.607 896.176 475.549 894.25 474.501C893.982 473.142 894.032 473.202 894.75 472.004L899.731 471.713L900.493 471.614C904.81 471.991 909.424 472.08 912.989 474.888C916.25 477.456 918.451 481.088 918.938 485.24C919.424 489.38 918.426 492.637 915.75 495.86C913.877 498.116 912.102 500.12 909.25 500.994L908.491 501.254C905.373 502.253 901.91 502.336 898.659 502.433L865.75 502.571L739.586 502.521L693.734 502.508L685.162 502.508C683.995 502.508 682.286 502.73 681.25 502.238C682.168 500.918 682.483 500.8 682.343 499.144L680.941 498.402C681.882 497.293 682.62 496.251 683.363 495C683.44 489.679 684.234 483.265 682.823 478.129Z"/>
	<path fill="#FEA402" d="M785.037 475.763L784.103 475.262C785.236 474.758 788.667 474.053 788.858 473L788.75 471.725C790.627 471.407 792.099 471.342 793.98 471.655C794.065 472.829 794.145 472.237 793.679 473.421C795.78 475.007 802.662 473.214 803.5 475.5L803.971 475.336C805.075 475.119 806.196 475.605 807.241 475.931L785.037 475.763Z"/>
	<path fill="#300436" d="M708.488 477.25C710.254 476.496 713.768 477.236 715.778 477.191L760.319 477.009C760.866 482.66 761.515 488.866 760.529 494.492C760.16 496.598 759.362 497.29 757.75 498.452C754.138 499.545 749.547 499.262 745.804 499.184L728.953 498.988C724.286 498.973 719.578 499.389 714.923 499.214C713.215 499.15 711.068 499.161 709.528 498.361C708.137 497.639 707.356 496.793 706.999 495.25C706.091 491.333 706.107 480.535 708.488 477.25Z"/>
	<path fill="#B73651" d="M715.516 484.008L750.576 483.805L750.472 490.197L715.809 490.21L715.516 484.008Z"/>
	<path fill="#300436" d="M858.008 475.664L899.939 475.934C904.156 475.991 908.368 476.191 911.679 479.152C913.674 480.935 915.262 483.887 915.227 486.608C915.188 489.675 913.548 493.165 911.337 495.25C909.17 497.293 906.39 497.871 903.539 498.233C898.752 498.84 893.496 498.255 888.638 498.24L860.577 498.478C858.013 498.514 856.708 498.615 854.779 496.75C853.635 492.296 854.01 487.294 854.152 482.722C854.199 481.215 854.087 479.197 854.795 477.818C855.557 476.333 856.564 476.171 858.008 475.664Z"/>
	<path fill="#B63A11" d="M899.7 484.121C901.72 484.465 902.867 484.396 904.441 485.75C904.207 487.097 904.076 487.855 903.25 488.991C901.826 489.807 900.2 489.659 898.605 489.702L900.508 487.75L899.7 484.121Z"/>
	<path fill="#D7504D" d="M898.605 489.702C890.604 488.666 881.307 489.528 873.157 489.518C870.317 489.514 867.046 489.867 864.28 489.25C863.773 487.69 864.112 485.974 864.25 484.366C866.579 482.55 874.018 483.674 877 483.735L899.7 484.121L900.508 487.75L898.605 489.702Z"/>
	<path fill="#300436" d="M807.241 475.931C808.445 476.245 810.628 475.984 811.923 475.993L825.11 475.87C827.909 475.786 831.153 475.47 833.922 475.944C835.048 476.137 835.784 476.698 836.62 477.428C838.212 481.568 837.675 488.063 837.525 492.5C837.461 494.381 837.537 495.987 835.93 497.25C835.112 497.893 833.489 498.333 832.497 498.439C828.791 498.836 824.713 498.197 820.959 498.225L795.48 498.51C791.57 498.51 787.365 498.805 783.489 498.285C780.839 497.929 779.696 497.579 778.073 495.5C777.854 491.314 776.582 480.109 779.499 477.25C780.979 475.8 783.091 475.9 785.037 475.763L807.241 475.931Z"/>
	<path fill="#D7504D" d="M789.245 483.747L828.044 483.507C828.019 485.543 828.225 487.838 827.464 489.75L826.125 489.991L786.849 490.009C786.884 488.047 786.86 486.107 787.25 484.175L789.245 483.747Z"/>
	<defs>
		<linearGradient id="gradient_7" gradientUnits="userSpaceOnUse" x1="420.86838" y1="350.57642" x2="699.42773" y2="499.96542">
			<stop offset="0" stop-color="#0E4566"/>
			<stop offset="1" stop-color="#179C9B"/>
		</linearGradient>
	</defs>
	<path fill="url(#gradient_7)" d="M515.08 452.711L429.584 452.237L396.781 451.705C395.212 451.646 391.335 451.995 390 451.449C389.528 451.256 389.167 450.861 388.75 450.567C387.215 446.809 388.015 440.915 388.025 436.843L388.112 409.209L757.696 408.636L756.746 408.936C755.261 409.384 753.851 409.152 752.381 409.531C749.594 410.25 746.033 409.232 744.244 412.533L743.88 413.88C742.09 414.517 740.327 415.182 738.463 415.573C729.879 414.617 721.255 415.044 712.644 414.663C709.729 414.534 706.804 414.015 703.912 413.939L678.5 413.923L656.692 413.535L641.128 414.425L572.817 415.969L437.204 416.187L417.516 416.116C409.758 415.849 401.867 414.76 394.12 416.022C394.078 420.495 392.93 438.8 395.051 441.573C395.513 442.177 396.159 442.237 396.85 442.408C403.582 444.084 412.405 443.051 419.391 442.919L607.474 443.944C611.832 442.994 616.323 443.911 620.68 443.192L621.014 441.452C622.176 438.552 624.709 436.61 625.29 433.505L658.75 433.85C659.729 433.27 660.766 432.893 661.824 432.487C670.35 431.967 678.961 432.369 687.5 432.466C689.905 432.493 693.839 431.977 695.997 432.691C701.433 433.463 707.31 433.028 712.82 433.025L748.163 433.055C750.026 432.576 752.897 432.825 754.859 432.749L775.981 432.367L775.873 450.785L758.337 450.898C755.612 450.915 752.378 451.278 749.704 450.9L718.707 451.354C713.562 451.186 708.253 450.778 703.116 451.096C699.099 451.345 695.314 452.402 691.25 452.375L515.08 452.711Z"/>
	<path fill="#18919A" d="M607.474 443.944C611.832 442.994 616.323 443.911 620.68 443.192L621.014 441.452L621.75 442.877L646.339 443.376C650.201 443.485 654.344 443.227 658.143 443.94C664.63 443.9 673.444 442.093 679.443 444.899L653.281 444.963C650.654 445.572 646.516 444.987 643.76 444.949L607.474 443.944Z"/>
	<path fill="#18919A" d="M775.981 432.367L775.873 450.785L758.337 450.898C755.612 450.915 752.378 451.278 749.704 450.9C746.047 449.125 739.329 450.416 735.25 450.5C734.013 450.525 732.724 450.3 731.5 450.377C728.733 450.553 724.411 450.838 721.746 450.025C722.638 449.286 722.344 449.629 723.002 448.693L723.447 448.034C724.429 447.561 725.454 446.954 726.552 446.838L727.011 446.837C727.595 446.02 727.925 445.407 728.128 444.43L728.303 443.527C728.946 442.861 729.625 442.279 729.992 441.416L730.201 440.856C730.645 439.994 731.202 439.264 731.581 438.354C732.202 436.866 733.26 437.319 734.138 436.319C734.571 435.826 734.966 434.421 735.25 433.769C739.441 433.54 743.583 433.968 747.739 433.144L748.163 433.055C750.026 432.576 752.897 432.825 754.859 432.749L775.981 432.367Z"/>
	<defs>
		<linearGradient id="gradient_8" gradientUnits="userSpaceOnUse" x1="468.09164" y1="521.90686" x2="690.28436" y2="323.62756">
			<stop offset="0" stop-color="#0D7B7B"/>
			<stop offset="1" stop-color="#1EB6BA"/>
		</linearGradient>
	</defs>
	<path fill="url(#gradient_8)" d="M757.696 408.636L762.907 408.545C762.456 409.635 760.694 410.608 761 411.412C763.399 411.122 766.012 410.249 768.405 410.64C768.702 411.974 768.136 413.243 767.75 414.513C766.847 415.102 766.12 415.149 765.096 415.331C764.439 415.447 764.685 415.384 764.044 415.781L764.725 415.931C768.156 416.656 772.013 416.124 775.224 417.277L775.701 418.365C775.631 419.594 775.432 420.909 775.641 422.122C776.425 425.262 776.009 429.115 775.981 432.367L754.859 432.749C752.897 432.825 750.026 432.576 748.163 433.055L712.82 433.025C707.31 433.028 701.433 433.463 695.997 432.691C693.839 431.977 689.905 432.493 687.5 432.466C678.961 432.369 670.35 431.967 661.824 432.487C660.766 432.893 659.729 433.27 658.75 433.85L625.29 433.505C624.709 436.61 622.176 438.552 621.014 441.452L620.68 443.192C616.323 443.911 611.832 442.994 607.474 443.944L419.391 442.919C412.405 443.051 403.582 444.084 396.85 442.408C396.159 442.237 395.513 442.177 395.051 441.573C392.93 438.8 394.078 420.495 394.12 416.022C401.867 414.76 409.758 415.849 417.516 416.116L437.204 416.187L572.817 415.969L641.128 414.425L656.692 413.535L678.5 413.923L703.912 413.939C706.804 414.015 709.729 414.534 712.644 414.663C721.255 415.044 729.879 414.617 738.463 415.573C740.327 415.182 742.09 414.517 743.88 413.88L744.244 412.533C746.033 409.232 749.594 410.25 752.381 409.531C753.851 409.152 755.261 409.384 756.746 408.936L757.696 408.636Z"/>
	<path fill="#18919A" d="M757.696 408.636L762.907 408.545C762.456 409.635 760.694 410.608 761 411.412C763.399 411.122 766.012 410.249 768.405 410.64C768.702 411.974 768.136 413.243 767.75 414.513C766.847 415.102 766.12 415.149 765.096 415.331C764.439 415.447 764.685 415.384 764.044 415.781C760.971 415.167 752.838 413.957 750.281 415.944L749.75 416.413C745.967 416.102 742.214 416.251 738.463 415.573C740.327 415.182 742.09 414.517 743.88 413.88L744.244 412.533C746.033 409.232 749.594 410.25 752.381 409.531C753.851 409.152 755.261 409.384 756.746 408.936L757.696 408.636Z"/>
	<path fill="#FEFEFE" d="M658.565 422.373L696.86 422.891C698.567 424.047 699.911 424.772 700.673 426.75C700.5 428.43 700.239 429.743 698.933 430.926C698.104 431.677 696.992 432.197 695.997 432.691C693.839 431.977 689.905 432.493 687.5 432.466C678.961 432.369 670.35 431.967 661.824 432.487L658.309 432.302C656.643 432.117 655.669 431.707 654.624 430.305C653.749 429.131 653.177 427.715 653.61 426.231C654.269 423.967 656.633 423.232 658.565 422.373Z"/>
	<defs>
		<linearGradient id="gradient_9" gradientUnits="userSpaceOnUse" x1="774.58374" y1="426.38971" x2="698.90759" y2="428.25867">
			<stop offset="0" stop-color="#12E0C1"/>
			<stop offset="1" stop-color="#2EEFFB"/>
		</linearGradient>
	</defs>
	<path fill="url(#gradient_9)" d="M696.86 422.891L775.641 422.122C776.425 425.262 776.009 429.115 775.981 432.367L754.859 432.749C752.897 432.825 750.026 432.576 748.163 433.055L712.82 433.025C707.31 433.028 701.433 433.463 695.997 432.691C696.992 432.197 698.104 431.677 698.933 430.926C700.239 429.743 700.5 428.43 700.673 426.75C699.911 424.772 698.567 424.047 696.86 422.891Z"/>
	<path fill="#0FF0D5" d="M625.29 433.505L410.513 432.986C409.662 432.896 409.346 432.983 408.798 432.252C407.497 430.516 407.056 428.129 407.485 426C407.742 424.728 408.281 424.013 409.407 423.348C410.987 422.416 413.425 422.507 415.217 422.489L591.25 421.986L637.412 421.976C644.088 421.98 652.03 421.139 658.565 422.373C656.633 423.232 654.269 423.967 653.61 426.231C653.177 427.715 653.749 429.131 654.624 430.305C655.669 431.707 656.643 432.117 658.309 432.302L661.824 432.487C660.766 432.893 659.729 433.27 658.75 433.85L625.29 433.505Z"/>
</svg>
